<svg width="249" height="58" viewBox="0 0 249 58" fill="none" xmlns="http://www.w3.org/2000/svg">
<path d="M26.2777 33.5391H23.8888C23.5213 33.5391 23.2763 33.6651 23.0925 33.9804L13.5369 49.8043L3.98131 33.9804C3.79755 33.6651 3.55253 33.5391 3.18501 33.5391H0.734853C0.306076 33.5391 0.122314 33.7912 0.122314 34.2325V57.1804C0.122314 57.6217 0.306076 57.8739 0.734853 57.8739H2.69498C3.12376 57.8739 3.36877 57.6217 3.36877 57.1804V39.0869L12.0056 53.1456C12.2506 53.5239 12.4343 53.5869 12.8019 53.5869H14.2107C14.517 53.5869 14.8232 53.5239 15.007 53.1456L23.6438 39.1499V57.1804C23.6438 57.6217 23.8888 57.8739 24.3176 57.8739H26.2777C26.7065 57.8739 26.9515 57.6217 26.9515 57.1804V34.2325C26.9515 33.7912 26.7065 33.5391 26.2777 33.5391Z" fill="white"/>
<path fill-rule="evenodd" clip-rule="evenodd" d="M49.9221 46.0847V50.2456C49.9221 55.3521 48.6358 57.8739 43.0005 57.8739H37.4876C31.9135 57.8739 30.5659 55.3521 30.5659 50.2456V46.0847C30.5659 41.0413 31.9135 38.5195 37.4876 38.5195H43.0005C48.6358 38.5195 49.9221 41.0413 49.9221 46.0847ZM46.7982 45.8326C46.7982 42.3652 46.0632 41.6087 42.9392 41.6087H37.5489C34.4249 41.6087 33.6899 42.3652 33.6899 45.8326V50.4978C33.6899 54.0913 34.4249 54.8478 37.5489 54.8478H42.9392C46.0632 54.8478 46.7982 54.0913 46.7982 50.4978V45.8326Z" fill="white"/>
<path fill-rule="evenodd" clip-rule="evenodd" d="M70.8707 44.1934V57.1804C70.8707 57.6217 70.6257 57.8739 70.197 57.8739H68.3593C67.9306 57.8739 67.6855 57.6217 67.6855 57.1804V54.9108C66.828 56.9282 65.5417 57.8739 61.8664 57.8739H59.355C54.8835 57.8739 52.3721 56.2347 52.3721 52.5782C52.3721 48.7956 53.7809 47.2195 58.375 46.7152L66.6442 45.7695C67.4405 45.6434 67.6855 45.2021 67.6855 44.3826C67.6855 42.176 67.073 41.6087 64.2553 41.6087H54.516C54.0872 41.6087 53.8422 41.3565 53.8422 40.9152V39.213C53.8422 38.7717 54.0872 38.5195 54.516 38.5195H64.3166C69.1556 38.5195 70.8707 40.2847 70.8707 44.1934ZM67.6855 48.5434L58.865 49.4891C56.1698 49.7413 55.5573 50.4347 55.5573 52.263C55.5573 53.9652 56.7211 54.9108 59.355 54.9108H63.1528C66.6442 54.9108 67.6855 53.65 67.6855 50.4347V48.5434Z" fill="white"/>
<path d="M86.1838 38.5195H78.5271V34.2325C78.5271 33.7912 78.2821 33.5391 77.8533 33.5391H76.9957C76.5466 33.5391 76.322 33.7912 76.322 34.2956C76.2607 38.2043 76.0157 38.4565 73.3205 38.5195C72.8917 38.5195 72.6467 38.7717 72.6467 39.213V40.8521C72.6467 41.2934 72.8917 41.5456 73.3205 41.5456H75.3419V50.5608C75.3419 55.4152 76.7507 57.8739 82.8149 57.8739H86.1838C86.6126 57.8739 86.8576 57.6217 86.8576 57.1804V55.6043C86.8576 55.163 86.6126 54.9108 86.1838 54.9108H82.8149C79.4459 54.9108 78.5271 53.9652 78.5271 50.876V41.5456H86.1838C86.6126 41.5456 86.8576 41.2934 86.8576 40.8521V39.213C86.8576 38.7717 86.6126 38.5195 86.1838 38.5195Z" fill="white"/>
<path d="M111.543 38.5195H110.808C107.623 38.5195 105.847 39.4652 104.928 41.2934C104.009 39.3391 102.171 38.5195 98.9862 38.5195H98.2511C95.1884 38.5195 93.6571 39.3391 92.922 41.0413V39.213C92.922 38.7717 92.677 38.5195 92.2483 38.5195H90.4719C90.0431 38.5195 89.7981 38.7717 89.7981 39.213V57.1804C89.7981 57.6217 90.0431 57.8739 90.4719 57.8739H92.2483C92.677 57.8739 92.922 57.6217 92.922 57.1804V45.8956C92.922 42.2391 94.1471 41.6087 96.781 41.6087H98.6799C101.743 41.6087 102.478 42.3652 102.478 45.8956V57.2434C102.478 57.6847 102.723 57.9369 103.151 57.9369H104.989C105.418 57.9369 105.602 57.6847 105.602 57.2434V45.8956C105.602 42.2391 106.827 41.6087 109.461 41.6087H111.359C114.483 41.6087 115.218 42.3652 115.218 45.8956V57.2434C115.218 57.6847 115.463 57.9369 115.892 57.9369H117.73C118.159 57.9369 118.342 57.6847 118.342 57.2434V46.1478C118.342 41.0413 116.995 38.5195 111.543 38.5195Z" fill="white"/>
<path d="M133.717 38.5195H126.061V34.2325C126.061 33.7912 125.816 33.5391 125.387 33.5391H124.468C124.06 33.5391 123.856 33.7912 123.856 34.2956C123.794 38.2043 123.549 38.4565 120.793 38.5195C120.364 38.5195 120.119 38.7717 120.119 39.213V40.8521C120.119 41.2934 120.364 41.5456 120.793 41.5456H122.876V50.5608C122.876 55.4152 124.284 57.8739 130.287 57.8739H133.717C134.146 57.8739 134.391 57.6217 134.391 57.1804V55.6043C134.391 55.163 134.146 54.9108 133.717 54.9108H130.287C126.98 54.9108 126.061 53.9652 126.061 50.876V41.5456H133.717C134.146 41.5456 134.391 41.2934 134.391 40.8521V39.213C134.391 38.7717 134.146 38.5195 133.717 38.5195Z" fill="white"/>
<path fill-rule="evenodd" clip-rule="evenodd" d="M134.391 12.2919V17.0833C134.391 19.4789 132.431 21.4963 130.042 21.4963H119.935C119.568 21.4963 119.323 21.2441 119.323 20.8659V19.3528C118.526 20.6767 117.179 21.4963 115.647 21.4963H104.07C103.703 25.1528 101.988 27.0441 96.72 27.0441H93.2898C92.861 27.0441 92.616 26.792 92.616 26.3506V24.7115C92.616 24.2702 92.861 24.018 93.2898 24.018H96.72C99.4152 24.018 100.579 23.3876 100.885 21.4963H92.9835V21.5593C90.5946 21.5593 88.6345 19.5419 88.6345 17.0833V12.355C88.6345 9.8963 90.5946 7.87891 92.9835 7.87891H99.9665C100.885 7.87891 101.743 8.19412 102.478 8.76152C103.458 9.45499 104.07 10.6528 104.132 11.9767C104.132 12.1028 104.132 12.2079 104.132 12.2919V18.2811H115.647C116.137 18.2811 116.628 17.9659 116.75 17.4615L118.955 10.8419C119.568 9.07673 121.222 7.87891 123.059 7.87891H130.042C132.431 7.87891 134.391 9.8963 134.391 12.2919ZM92.6773 18.2811H101.008V12.1028C100.947 11.7876 100.824 11.4724 100.64 11.3463C100.436 11.2202 100.212 11.1362 99.9665 11.0941H92.9835C92.3098 11.0941 91.7585 11.6615 91.7585 12.355V17.0833C91.7585 17.6506 92.1872 18.155 92.6773 18.2811ZM131.267 12.2919C131.267 11.6615 130.716 11.0941 130.042 11.0941H123.059C122.508 11.0941 122.079 11.4093 121.895 11.9137L119.813 18.2811C119.854 18.2811 119.894 18.2811 119.935 18.2811H130.042C130.716 18.2811 131.267 17.7137 131.267 17.0833V12.2919Z" fill="white"/>
<path fill-rule="evenodd" clip-rule="evenodd" d="M50.4119 21.4988H31.9745C29.7694 21.4988 27.748 20.4271 26.4617 18.7879C25.2978 20.301 23.5215 21.3097 21.5001 21.4988H7.10545C3.1852 21.4988 0 18.2205 0 14.1857V8.51184C0 8.13358 0.306269 7.81836 0.612539 7.81836H2.51141C2.87893 7.81836 3.12395 8.13358 3.12395 8.51184V14.1857C3.12395 16.4553 4.90031 18.2836 7.10545 18.2836H20.9488C23.154 18.2836 24.9303 16.4553 24.9303 14.1857V8.51184C24.9303 8.13358 25.1753 7.81836 25.5429 7.81836H27.3805C27.748 7.81836 28.0543 8.13358 28.0543 8.51184V8.63792C28.0543 8.67995 28.0543 8.70097 28.0543 8.70097V14.1857C28.0543 16.4553 29.8306 18.2836 31.9745 18.2836H36.446H50.4119C50.902 18.2836 51.392 17.9684 51.5145 17.464L53.7196 10.8444C54.3322 9.07923 55.986 7.8814 57.8849 7.8814H64.8066C67.2567 7.8814 69.1556 9.89879 69.1556 12.2944V17.0857C69.1556 17.506 69.1148 17.9053 69.0331 18.2836H78.0374C80.2426 18.2836 81.9577 16.4553 81.9577 14.1857V8.51184C81.9577 8.13358 82.2639 7.81836 82.6315 7.81836H84.4691C84.8366 7.81836 85.0816 8.13358 85.0816 8.51184V14.1857C85.0816 18.2205 81.8964 21.4988 78.0374 21.4988H54.6997C54.3322 21.4988 54.0872 21.2466 54.0872 20.8684V19.3553C53.2909 20.6162 51.9433 21.4988 50.4119 21.4988ZM54.5772 18.2836C54.618 18.2836 54.6589 18.2836 54.6997 18.2836H62.3564H63.5815H64.8066C65.5416 18.2836 66.0317 17.7162 66.0317 17.0857V12.2944C66.0317 11.664 65.4804 11.0966 64.8066 11.0966H57.8849C57.3336 11.0966 56.8436 11.4118 56.6598 11.9162L54.5772 18.2836Z" fill="white"/>
<path d="M93.167 5.42174H94.2083H96.1684H99.5987C99.9662 5.42174 100.15 5.23261 100.15 4.91739V4.03478C100.15 3.71957 99.9662 3.53043 99.5987 3.53043H96.1684C96.3522 2.20652 97.026 1.82826 98.7411 1.82826H99.7212C99.9662 1.82826 100.15 1.63913 100.15 1.38695V0.441302C100.15 0.126085 99.9662 0 99.7212 0H98.7411C95.4334 0 94.4533 1.19783 94.2696 3.53043H93.167C92.7995 3.53043 92.6157 3.69855 92.6157 4.03478V4.91739C92.6157 5.25362 92.7995 5.42174 93.167 5.42174Z" fill="white"/>
<path d="M80.6102 6.36758C81.9578 6.36758 82.6928 5.54801 82.6928 4.16106C82.6928 2.7741 81.9578 2.01758 80.6102 2.01758C79.2626 2.01758 78.4663 2.7741 78.4663 4.16106C78.4663 5.54801 79.2626 6.36758 80.6102 6.36758Z" fill="white"/>
<path d="M86.1839 2.01758C84.8364 2.01758 84.1013 2.7741 84.1013 4.16106C84.1013 5.54801 84.8364 6.36758 86.1839 6.36758C87.5315 6.36758 88.2666 5.54801 88.2666 4.16106C88.2666 2.7741 87.5315 2.01758 86.1839 2.01758Z" fill="white"/>
<path d="M11.2093 10.0219C12.5569 10.0219 13.2307 9.26535 13.2307 7.8784C13.2307 6.49144 12.5569 5.67188 11.2093 5.67188C9.80048 5.67188 9.06543 6.49144 9.06543 7.8784C9.06543 9.26535 9.80048 10.0219 11.2093 10.0219Z" fill="white"/>
<path d="M16.7218 10.0219C18.0694 10.0219 18.8657 9.26535 18.8657 7.8784C18.8657 6.49144 18.0694 5.67188 16.7218 5.67188C15.3742 5.67188 14.6392 6.49144 14.6392 7.8784C14.6392 9.26535 15.3742 10.0219 16.7218 10.0219Z" fill="white"/>
<path fill-rule="evenodd" clip-rule="evenodd" d="M248.691 18.85V39.15C248.691 49.4261 240.36 58 230.008 58H219.656C212.367 58 194.175 58 186.824 58C185.17 58 184.19 56.9283 184.19 55.2261V47.7239C180.882 53.713 175.308 58 168.632 58H153.931C152.277 58 151.297 56.9913 151.297 55.2891V47.0304C151.297 45.6435 152.277 44.2565 153.931 44.2565C158.831 44.2565 163.731 44.2565 168.632 44.2565C170.653 44.2565 172.613 42.9326 173.287 40.8522L182.659 12.6717C185.293 5.16956 192.337 0 200.3 0H230.008C240.36 0 248.691 8.57391 248.691 18.85ZM235.337 18.85C235.337 16.1391 233.01 13.7435 230.008 13.7435H200.3C197.972 13.7435 195.951 15.0674 195.338 17.1478L186.212 44.5087C186.457 44.4457 186.579 44.2565 186.824 44.2565C200.096 44.2565 213.347 44.2565 226.578 44.2565H230.008C233.01 44.2565 235.337 41.8609 235.337 39.15V18.85Z" fill="white"/>
</svg>
