<svg width="141" height="57" viewBox="0 0 141 57" fill="none" xmlns="http://www.w3.org/2000/svg">
<path d="M4.96268 0H2.35474V2.4528H4.96268V0Z" fill="white"/>
<path d="M8.91581 0H6.30786V2.4528H8.91581V0Z" fill="white"/>
<path d="M53.3765 17.1289H50.7686V19.5817H53.3765V17.1289Z" fill="white"/>
<path d="M57.3316 17.1289H54.7236V19.5817H57.3316V17.1289Z" fill="white"/>
<path d="M67.0407 2.45312H64.4111V4.88433H67.0407V2.45312Z" fill="white"/>
<path d="M76.1292 0.380859H73.5212V2.81402H76.1292V0.380859Z" fill="white"/>
<path d="M80.106 0.380859H77.498V2.81402H80.106V0.380859Z" fill="white"/>
<path d="M86.7496 6.49271V11.1666C86.7496 12.5413 86.2449 13.2384 85.2571 13.2384H83.7665H83.3856H82.0639C81.1586 13.2384 80.5911 13.1756 80.3397 13.0695C81.245 12.0326 81.7065 10.8701 81.7065 9.60143C81.7065 9.0712 81.6221 8.5233 81.4551 7.99307C80.8031 5.94089 79.0573 4.65065 76.8068 4.65065C74.5975 4.65065 72.832 5.94089 72.1584 7.99307C71.9895 8.52134 71.9051 9.0712 71.9051 9.60143C71.9051 10.8701 72.3686 12.0326 73.2719 13.0695C73.0402 13.1756 72.4726 13.2384 71.5477 13.2384H70.3674H69.633H66.917C67.1487 12.5825 67.2744 11.8854 67.2744 11.1018V6.49271H64.3091V11.2078C64.3091 12.5609 63.8044 13.2384 62.8166 13.2384H60.9058H60.8802H57.2924C57.5241 12.5825 57.6282 11.8854 57.6282 11.1018V6.49271H54.6628V11.2078C54.6628 12.5609 54.1797 13.2384 53.1899 13.2384H51.5482H51.2536H48.2647H47.9289H44.5413H44.2055H40.8179H40.4821H26.107H25.7712H21.9417H21.6059H17.7765H17.4406H13.6308H13.2754H12.1167C10.6871 13.2384 9.97029 12.4784 9.97029 11.0822V4.42285C6.22726 4.42285 4.35378 4.42285 4.35378 4.44249C1.57694 4.44249 0 6.47308 0 9.62304C0 12.5413 1.62015 14.7407 4.14365 14.7407C5.59491 14.7407 6.60431 14.2969 7.13062 13.4721C7.80421 15.2062 8.9825 16.0722 10.6655 16.0722H13.2754H13.6308H17.4406H17.7765H21.6059H21.9417H25.7712H26.107H40.4821H40.8179H44.2055H44.5413H47.9289H48.2647H51.2536H51.5482H60.8802H60.9058H69.633H70.3674H71.5477C73.5881 16.0722 75.3339 15.8189 76.8068 15.2906C78.2796 15.8189 80.0255 16.0722 82.0659 16.0722H83.3875H83.7685H85.8914C87.1109 16.0722 88.0791 15.65 88.7723 14.7839C89.3811 14.0436 89.6973 13.1127 89.6973 11.9914V6.49468H86.7496V6.49271ZM6.94013 9.38934C6.94013 11.1234 6.18405 12.2879 4.94292 12.2879C3.76463 12.2879 2.92412 11.0625 2.92412 9.5818C2.92412 7.93219 3.80784 6.59876 5.00577 6.59876H6.94013V9.38934ZM77.8339 11.8205C77.4764 12.0739 77.1387 12.286 76.8029 12.4549C76.467 12.286 76.1293 12.0758 75.7935 11.8205C74.9726 11.2275 74.5739 10.4243 74.5739 9.38738C74.5739 8.73146 74.7625 8.16196 75.1199 7.69653C75.5617 7.21147 76.1096 6.95618 76.8029 6.95618C78.2129 6.95618 79.0534 8.05591 79.0534 9.38738C79.0534 10.4262 78.6547 11.2294 77.8339 11.8205Z" fill="white"/>
<path d="M89.5048 2.45312H86.8752V4.88433H89.5048V2.45312Z" fill="white"/>
<path d="M85.5301 2.45312H82.9221V4.88433H85.5301V2.45312Z" fill="white"/>
<path d="M8.92943 22.1816H6.3313V24.6207H8.92943V22.1816Z" fill="white"/>
<path d="M4.99412 22.1816H2.396V24.6207H4.99412V22.1816Z" fill="white"/>
<path d="M27.8175 39.2061H25.1938V41.6412H27.8175V39.2061Z" fill="white"/>
<path d="M23.8545 39.2061H21.2563V41.6412H23.8545V39.2061Z" fill="white"/>
<path d="M6.96175 31.5093C6.96175 33.2335 6.2096 34.3902 4.97436 34.3902C3.79804 34.3902 2.96145 33.1727 2.96145 31.6998C2.96145 30.058 3.83928 28.7364 5.03524 28.7364H6.96175V31.5093ZM25.0701 33.2767C25.0701 34.6416 24.5654 35.3348 23.5796 35.3348H22.305H13.0417H12.1207C10.695 35.3348 9.98209 34.5807 9.98209 33.1943V26.5703C6.24888 26.5703 4.38522 26.5703 4.38522 26.5919C1.61428 26.5919 0.0412598 28.6107 0.0412598 31.743C0.0412598 34.6416 1.65748 36.8293 4.17313 36.8293C5.62046 36.8293 6.6279 36.3874 7.15027 35.5685C7.81993 37.2888 8.99626 38.1509 10.6714 38.1509H13.0398H22.3031H24.208C25.4216 38.1509 26.3858 37.7307 27.081 36.8725C27.6859 36.1361 28.0021 35.2091 28.0021 34.0957V28.6323H25.0681V33.2767H25.0701Z" fill="white"/>
<path d="M36.1793 29.0315C35.4055 28.7585 34.1055 28.6328 32.2595 28.6328V31.0895C35.9888 31.0895 37.5834 32.3935 37.5834 35.3392H29.9736V38.1554H40.5174V35.3176C40.5193 32.1421 39.0327 30.0409 36.1793 29.0315Z" fill="white"/>
<path d="M64.8333 32.2285C64.3502 32.6664 63.8907 33.0042 63.4724 33.1947C62.9893 32.6271 62.5474 32.2069 62.1724 31.9339C61.7973 31.6609 61.2906 31.3664 60.6641 31.0895C61.4811 30.6908 62.3196 30.5043 63.1582 30.5043C64.0183 30.5043 64.8962 30.734 65.7995 31.1975C65.6071 31.5137 65.2732 31.8475 64.8333 32.2285ZM48.9637 35.3392H47.265C46.1751 35.3392 45.4622 34.4338 45.4622 33.2379C45.4622 32.1244 46.0494 31.2623 47.1609 31.2623C48.2293 31.2623 48.9637 32.0596 48.9637 33.2988V35.3392ZM86.7161 33.4461C86.7161 34.7068 86.2114 35.3392 85.2256 35.3392H83.3639C83.5937 34.7068 83.7174 33.992 83.7174 33.2163V28.6327H80.7834V33.4461C80.7834 34.7068 80.2827 35.3392 79.2968 35.3392H77.4292C77.659 34.7068 77.7827 33.992 77.7827 33.2163V28.6327H74.8272V33.3204C74.8272 33.8879 74.7879 34.2434 74.7015 34.4123C74.4717 35.023 74.0102 35.3392 73.3406 35.3392H71.8324H70.6992H67.0524C66.3828 35.3392 65.8604 35.1703 65.4794 34.8109C66.2355 34.3514 67.0308 33.6365 67.891 32.6487C68.6687 31.7434 69.191 30.9854 69.4208 30.4218C67.4295 28.8841 65.2713 28.1084 62.9422 28.1084C60.9941 28.1084 59.044 28.6759 57.1391 29.811V32.2285C57.956 32.3758 58.8162 32.7312 59.694 33.2772C60.4285 33.7406 60.9725 34.1825 61.2886 34.6243C60.511 35.1055 59.5899 35.3392 58.5609 35.3392H56.4969H53.8909H51.8996V33.4244C51.8996 30.6299 49.9338 28.6111 47.2493 28.6111C44.4568 28.6111 42.4871 30.5259 42.4871 33.3636C42.4871 36.1581 44.5 38.1553 47.2493 38.1553C48.2312 38.1553 48.8184 38.1121 49.0521 38.0296C48.8184 38.8485 48.1487 39.2688 47.0176 39.2688H46.7662V41.6214H47.0824C49.9339 41.6214 51.5245 40.4647 51.8623 38.1553H53.8929H56.4989H58.608C59.4682 38.1553 60.3283 38.008 61.2101 37.735C62.027 37.4581 62.6751 37.1027 63.1798 36.6824C64.1224 37.6702 65.2104 38.1553 66.4299 38.1553H70.7032H71.8363H85.3375C86.3842 38.1553 87.3288 37.7743 88.1458 37.0418C89.1748 36.1149 89.6756 34.8325 89.6756 33.1947V28.6327H86.72V33.4461H86.7161Z" fill="white"/>
<path d="M98.8132 0.00976562V42.1965H141V0.00976562H98.8132ZM130.111 19.8306C132.402 22.847 133.677 25.0563 133.677 25.0563C132.893 26.427 132.015 27.894 131.045 29.4552C131.045 29.4552 129.633 27.0908 127.114 23.7739C125.843 22.1027 122.589 18.3773 122.54 18.3243C122.542 18.397 122.538 34.5984 122.548 36.1263L122.54 36.1243C122.54 36.1302 122.54 36.1381 122.54 36.144H117.265C117.275 34.6161 117.271 18.3989 117.273 18.3243C117.224 18.3773 113.97 22.1047 112.699 23.7739C110.178 27.0908 108.768 29.4552 108.768 29.4552C107.798 27.894 106.92 26.427 106.136 25.0563C106.136 25.0563 107.411 22.8489 109.703 19.8306C110.714 18.4991 113.163 15.7301 113.774 15.0428C112.038 15.3609 110.419 15.7772 109.214 16.1759C108.051 16.5608 107.161 16.9418 106.578 17.2148C106.024 17.474 105.728 17.6409 105.728 17.6409C106.091 16.2191 106.504 14.9328 106.971 13.8115C106.971 13.8115 107.248 13.6151 107.77 13.3087C108.314 12.9906 109.147 12.5507 110.233 12.1147C111.382 11.6552 112.821 11.1976 114.465 10.8579C114.418 10.8225 113.377 9.98595 112.968 9.72084C111.073 8.49738 110.329 8.89211 110.329 8.89211C111.272 8.21263 112.224 7.66276 113.167 7.26999C113.167 7.26999 113.314 7.18358 113.599 7.11681C113.901 7.04415 114.384 7.00488 115.015 7.12664C115.722 7.26214 117.754 8.21459 117.788 8.23423C117.79 8.2028 117.886 7.2916 117.919 6.96757C118.017 6.02101 118.226 6.07992 118.391 6.06421H121.419C121.586 6.07796 121.792 6.02101 121.89 6.96757C121.923 7.2916 122.018 8.2028 122.022 8.23423C122.057 8.21459 124.088 7.2641 124.795 7.12664C125.425 7.00488 125.908 7.04415 126.21 7.11681C126.495 7.18555 126.642 7.26999 126.642 7.26999C127.585 7.66276 128.538 8.21263 129.48 8.89211C129.48 8.89211 128.734 8.49738 126.841 9.72084C126.43 9.98595 125.392 10.8245 125.344 10.8579C126.988 11.1976 128.428 11.6552 129.576 12.1147C130.662 12.5507 131.493 12.9906 132.039 13.3087C132.561 13.6151 132.838 13.8115 132.838 13.8115C133.306 14.9328 133.718 16.2191 134.081 17.6409C134.081 17.6409 133.785 17.474 133.231 17.2148C132.65 16.9418 131.76 16.5608 130.596 16.1759C129.39 15.7753 127.774 15.3609 126.036 15.0428C126.652 15.7301 129.099 18.4971 130.111 19.8306Z" fill="white"/>
<path d="M128.265 46.2875L131.717 50.0816H141V47.6897H135.436C135.191 48.1139 134.737 48.4006 134.211 48.4006C133.425 48.4006 132.789 47.7643 132.789 46.9788C132.789 46.1932 133.425 45.557 134.211 45.557C134.751 45.557 135.215 45.8614 135.454 46.3032H141V44.96H98.8132V46.2875H128.265Z" fill="white"/>
<path d="M131.104 51.4699L127.652 47.6758H98.8132V49.7398H104.777C105.019 49.2979 105.482 48.9935 106.02 48.9935C106.806 48.9935 107.442 49.6298 107.442 50.4153C107.442 51.2008 106.806 51.8371 106.02 51.8371C105.496 51.8371 105.042 51.5484 104.795 51.1262H98.8132V53.5947H107.495L111.641 49.7221H123.767C124.009 49.2802 124.472 48.9758 125.011 48.9758C125.796 48.9758 126.432 49.6121 126.432 50.3976C126.432 51.1832 125.796 51.8194 125.011 51.8194C124.486 51.8194 124.033 51.5307 123.785 51.1085H112.187L108.041 54.9812H98.8113V56.3225H141V51.4679H131.104V51.4699ZM138.178 55.3838C137.654 55.3838 137.2 55.0951 136.953 54.6729H114.724C114.479 55.097 114.025 55.3838 113.499 55.3838C112.713 55.3838 112.077 54.7475 112.077 53.962C112.077 53.1764 112.713 52.5402 113.499 52.5402C114.039 52.5402 114.502 52.8445 114.742 53.2864H136.933C137.174 52.8445 137.638 52.5402 138.176 52.5402C138.961 52.5402 139.598 53.1764 139.598 53.962C139.598 54.7475 138.963 55.3838 138.178 55.3838Z" fill="white"/>
</svg>
