<svg width="66" height="16" viewBox="0 0 66 16" fill="none" xmlns="http://www.w3.org/2000/svg">
<g clip-path="url(#clip0_1390_5778)">
<path d="M6.96095 8.87988H6.32816C6.23081 8.87988 6.1659 8.91326 6.11723 8.99671L3.58607 13.1857L1.05492 8.99671C1.00623 8.91326 0.941337 8.87988 0.843983 8.87988H0.194969C0.081391 8.87988 0.0327148 8.94664 0.0327148 9.06347V15.1385C0.0327148 15.2552 0.081391 15.3221 0.194969 15.3221H0.714181C0.827758 15.3221 0.89266 15.2552 0.89266 15.1385V10.3486L3.18044 14.0703C3.24533 14.1705 3.29402 14.1871 3.39137 14.1871H3.76455C3.84568 14.1871 3.9268 14.1705 3.97548 14.0703L6.26326 10.3653V15.1385C6.26326 15.2552 6.32816 15.3221 6.44174 15.3221H6.96095C7.07453 15.3221 7.13943 15.2552 7.13943 15.1385V9.06347C7.13943 8.94664 7.07453 8.87988 6.96095 8.87988Z" fill="white"/>
<path fill-rule="evenodd" clip-rule="evenodd" d="M13.2239 12.201V13.3026C13.2239 14.6544 12.8832 15.3219 11.3905 15.3219H9.93012C8.45364 15.3219 8.09668 14.6544 8.09668 13.3026V12.201C8.09668 10.8658 8.45364 10.1982 9.93012 10.1982H11.3905C12.8832 10.1982 13.2239 10.8658 13.2239 12.201ZM12.3964 12.1342C12.3964 11.2163 12.2017 11.016 11.3742 11.016H9.9464C9.11888 11.016 8.92417 11.2163 8.92417 12.1342V13.3693C8.92417 14.3206 9.11888 14.5209 9.9464 14.5209H11.3742C12.2017 14.5209 12.3964 14.3206 12.3964 13.3693V12.1342Z" fill="white"/>
<path fill-rule="evenodd" clip-rule="evenodd" d="M18.7726 11.7003V15.1384C18.7726 15.2552 18.7077 15.3219 18.5941 15.3219H18.1074C17.9938 15.3219 17.9289 15.2552 17.9289 15.1384V14.5375C17.7017 15.0716 17.361 15.3219 16.3875 15.3219H15.7222C14.5378 15.3219 13.8726 14.888 13.8726 13.92C13.8726 12.9187 14.2457 12.5014 15.4626 12.3679L17.653 12.1176C17.864 12.0841 17.9289 11.9674 17.9289 11.7504C17.9289 11.1662 17.7666 11.016 17.0203 11.016H14.4404C14.3268 11.016 14.262 10.9493 14.262 10.8324V10.3818C14.262 10.2651 14.3268 10.1982 14.4404 10.1982H17.0364C18.3183 10.1982 18.7726 10.6656 18.7726 11.7003ZM17.9289 12.8519L15.5925 13.1022C14.8785 13.169 14.7162 13.3526 14.7162 13.8366C14.7162 14.2872 15.0245 14.5375 15.7222 14.5375H16.7282C17.653 14.5375 17.9289 14.2037 17.9289 13.3526V12.8519Z" fill="white"/>
<path d="M22.8289 10.1984H20.8007V9.06347C20.8007 8.94664 20.7359 8.87988 20.6223 8.87988H20.3951C20.2762 8.87988 20.2166 8.94664 20.2166 9.08016C20.2004 10.1149 20.1355 10.1816 19.4216 10.1984C19.308 10.1984 19.2432 10.2651 19.2432 10.3819V10.8158C19.2432 10.9327 19.308 10.9994 19.4216 10.9994H19.9571V13.3861C19.9571 14.6711 20.3302 15.3221 21.9365 15.3221H22.8289C22.9425 15.3221 23.0074 15.2552 23.0074 15.1385V14.7212C23.0074 14.6044 22.9425 14.5376 22.8289 14.5376H21.9365C21.0441 14.5376 20.8007 14.2873 20.8007 13.4695V10.9994H22.8289C22.9425 10.9994 23.0074 10.9327 23.0074 10.8158V10.3819C23.0074 10.2651 22.9425 10.1984 22.8289 10.1984Z" fill="white"/>
<path d="M29.5461 10.1982H29.3514C28.5078 10.1982 28.0372 10.4486 27.7939 10.9327C27.5504 10.4153 27.0637 10.1982 26.22 10.1982H26.0253C25.214 10.1982 24.8084 10.4153 24.6137 10.8658V10.3818C24.6137 10.2651 24.5488 10.1982 24.4352 10.1982H23.9647C23.8511 10.1982 23.7861 10.2651 23.7861 10.3818V15.1384C23.7861 15.2552 23.8511 15.3219 23.9647 15.3219H24.4352C24.5488 15.3219 24.6137 15.2552 24.6137 15.1384V12.151C24.6137 11.183 24.9382 11.016 25.6359 11.016H26.1388C26.9501 11.016 27.1448 11.2163 27.1448 12.151V15.1551C27.1448 15.2718 27.2098 15.3387 27.3233 15.3387H27.8101C27.9236 15.3387 27.9723 15.2718 27.9723 15.1551V12.151C27.9723 11.183 28.2969 11.016 28.9945 11.016H29.4975C30.325 11.016 30.5197 11.2163 30.5197 12.151V15.1551C30.5197 15.2718 30.5846 15.3387 30.6982 15.3387H31.1849C31.2985 15.3387 31.3472 15.2718 31.3472 15.1551V12.2177C31.3472 10.8658 30.9902 10.1982 29.5461 10.1982Z" fill="white"/>
<path d="M35.4199 10.1984H33.3917V9.06347C33.3917 8.94664 33.3269 8.87988 33.2133 8.87988H32.9699C32.8617 8.87988 32.8077 8.94664 32.8077 9.08016C32.7914 10.1149 32.7265 10.1816 31.9964 10.1984C31.8828 10.1984 31.8179 10.2651 31.8179 10.3819V10.8158C31.8179 10.9327 31.8828 10.9994 31.9964 10.9994H32.5481V13.3861C32.5481 14.6711 32.9212 15.3221 34.5113 15.3221H35.4199C35.5335 15.3221 35.5984 15.2552 35.5984 15.1385V14.7212C35.5984 14.6044 35.5335 14.5376 35.4199 14.5376H34.5113C33.6352 14.5376 33.3917 14.2873 33.3917 13.4695V10.9994H35.4199C35.5335 10.9994 35.5984 10.9327 35.5984 10.8158V10.3819C35.5984 10.2651 35.5335 10.1984 35.4199 10.1984Z" fill="white"/>
<path fill-rule="evenodd" clip-rule="evenodd" d="M35.5984 3.25518V4.52357C35.5984 5.15777 35.0792 5.69184 34.4464 5.69184H31.7691C31.6718 5.69184 31.6069 5.62508 31.6069 5.52494V5.12439C31.396 5.47487 31.0391 5.69184 30.6334 5.69184H27.5668C27.4695 6.65982 27.0151 7.16051 25.6197 7.16051H24.7111C24.5975 7.16051 24.5327 7.09375 24.5327 6.97693V6.543C24.5327 6.42618 24.5975 6.35942 24.7111 6.35942H25.6197C26.3337 6.35942 26.642 6.19253 26.7231 5.69184H24.63V5.70852C23.9972 5.70852 23.478 5.17447 23.478 4.52357V3.27186C23.478 2.62097 23.9972 2.08691 24.63 2.08691H26.4797C26.7231 2.08691 26.9502 2.17036 27.1449 2.32056C27.4046 2.50415 27.5668 2.82125 27.583 3.17172C27.583 3.2051 27.583 3.23292 27.583 3.25518V4.84068H30.6334C30.7632 4.84068 30.893 4.75722 30.9255 4.62371L31.5096 2.87132C31.6718 2.40401 32.1099 2.08691 32.5966 2.08691H34.4464C35.0792 2.08691 35.5984 2.62097 35.5984 3.25518ZM24.5489 4.84068H26.7555V3.2051C26.7393 3.12166 26.7068 3.03821 26.6582 3.00484C26.6041 2.97146 26.5446 2.9492 26.4797 2.93808H24.63C24.4516 2.93808 24.3055 3.08828 24.3055 3.27186V4.52357C24.3055 4.67378 24.4191 4.8073 24.5489 4.84068ZM34.7709 3.25518C34.7709 3.08828 34.6248 2.93808 34.4464 2.93808H32.5966C32.4507 2.93808 32.3371 3.02152 32.2883 3.15504L31.7367 4.84068C31.7475 4.84068 31.7583 4.84068 31.7691 4.84068H34.4464C34.6248 4.84068 34.7709 4.69047 34.7709 4.52357V3.25518Z" fill="white"/>
<path fill-rule="evenodd" clip-rule="evenodd" d="M13.3535 5.69193H8.46964C7.88553 5.69193 7.35009 5.40821 7.00936 4.97428C6.70108 5.37483 6.23054 5.64187 5.69511 5.69193H1.88214C0.843719 5.69193 0 4.82408 0 3.75595V2.2539C0 2.15376 0.0811269 2.07031 0.162254 2.07031H0.66524C0.762593 2.07031 0.827494 2.15376 0.827494 2.2539V3.75595C0.827494 4.35677 1.29803 4.84077 1.88214 4.84077H5.54908C6.13319 4.84077 6.60372 4.35677 6.60372 3.75595V2.2539C6.60372 2.15376 6.66863 2.07031 6.76597 2.07031H7.25274C7.35009 2.07031 7.43122 2.15376 7.43122 2.2539V2.28728C7.43122 2.2984 7.43122 2.30397 7.43122 2.30397V3.75595C7.43122 4.35677 7.90175 4.84077 8.46964 4.84077H9.65408H13.3535C13.4833 4.84077 13.6131 4.75732 13.6455 4.62381L14.2297 2.87141C14.3919 2.4041 14.83 2.08701 15.333 2.08701H17.1665C17.8154 2.08701 18.3184 2.62107 18.3184 3.25526V4.52367C18.3184 4.63493 18.3076 4.74063 18.286 4.84077H20.6711C21.2552 4.84077 21.7096 4.35677 21.7096 3.75595V2.2539C21.7096 2.15376 21.7907 2.07031 21.888 2.07031H22.3748C22.4721 2.07031 22.5371 2.15376 22.5371 2.2539V3.75595C22.5371 4.82408 21.6933 5.69193 20.6711 5.69193H14.4893C14.3919 5.69193 14.327 5.62517 14.327 5.52503V5.12448C14.1161 5.45827 13.7591 5.69193 13.3535 5.69193ZM14.4568 4.84077C14.4677 4.84077 14.4785 4.84077 14.4893 4.84077H16.5174H16.842H17.1665C17.3612 4.84077 17.4909 4.69057 17.4909 4.52367V3.25526C17.4909 3.08837 17.3449 2.93817 17.1665 2.93817H15.333C15.1869 2.93817 15.0571 3.02161 15.0085 3.15513L14.4568 4.84077Z" fill="white"/>
<path d="M24.6787 1.43627H24.9545H25.4738H26.3824C26.4797 1.43627 26.5284 1.38621 26.5284 1.30276V1.0691C26.5284 0.985657 26.4797 0.935588 26.3824 0.935588H25.4738C25.5224 0.585108 25.7009 0.484971 26.1552 0.484971H26.4149C26.4797 0.484971 26.5284 0.434903 26.5284 0.368145V0.117802C26.5284 0.0343551 26.4797 0.000976562 26.4149 0.000976562H26.1552C25.2791 0.000976562 25.0194 0.318076 24.9708 0.935588H24.6787C24.5814 0.935588 24.5327 0.980096 24.5327 1.0691V1.30276C24.5327 1.39177 24.5814 1.43627 24.6787 1.43627Z" fill="white"/>
<path d="M21.3526 1.68673C21.7096 1.68673 21.9043 1.46977 21.9043 1.1026C21.9043 0.73543 21.7096 0.535156 21.3526 0.535156C20.9957 0.535156 20.7847 0.73543 20.7847 1.1026C20.7847 1.46977 20.9957 1.68673 21.3526 1.68673Z" fill="white"/>
<path d="M22.829 0.535156C22.4721 0.535156 22.2773 0.73543 22.2773 1.1026C22.2773 1.46977 22.4721 1.68673 22.829 1.68673C23.1859 1.68673 23.3807 1.46977 23.3807 1.1026C23.3807 0.73543 23.1859 0.535156 22.829 0.535156Z" fill="white"/>
<path d="M2.96926 2.6545C3.32621 2.6545 3.50469 2.45423 3.50469 2.08706C3.50469 1.71989 3.32621 1.50293 2.96926 1.50293C2.59607 1.50293 2.40137 1.71989 2.40137 2.08706C2.40137 2.45423 2.59607 2.6545 2.96926 2.6545Z" fill="white"/>
<path d="M4.42959 2.6545C4.78655 2.6545 4.99748 2.45423 4.99748 2.08706C4.99748 1.71989 4.78655 1.50293 4.42959 1.50293C4.07264 1.50293 3.87793 1.71989 3.87793 2.08706C3.87793 2.45423 4.07264 2.6545 4.42959 2.6545Z" fill="white"/>
<path fill-rule="evenodd" clip-rule="evenodd" d="M65.875 4.99113V10.3652C65.875 13.0855 63.6684 15.3553 60.9263 15.3553H58.1842C56.2534 15.3553 51.4345 15.3553 49.4874 15.3553C49.0493 15.3553 48.7897 15.0716 48.7897 14.621V12.635C47.9135 14.2204 46.437 15.3553 44.6684 15.3553H40.7744C40.3363 15.3553 40.0767 15.0882 40.0767 14.6376V12.4514C40.0767 12.0841 40.3363 11.717 40.7744 11.717C42.0724 11.717 43.3704 11.717 44.6684 11.717C45.2039 11.717 45.7231 11.3665 45.9016 10.8158L48.3841 3.35557C49.0818 1.36951 50.9476 0.000976562 53.057 0.000976562H60.9263C63.6684 0.000976562 65.875 2.27075 65.875 4.99113ZM62.3379 4.99113C62.3379 4.27349 61.7213 3.63928 60.9263 3.63928H53.057C52.4405 3.63928 51.905 3.98976 51.7427 4.54052L49.3251 11.7838C49.3901 11.7671 49.4225 11.717 49.4874 11.717C53.0029 11.717 56.5129 11.717 60.0177 11.717H60.9263C61.7213 11.717 62.3379 11.0828 62.3379 10.3652V4.99113Z" fill="white"/>
</g>
<defs>
<clipPath id="clip0_1390_5778">
<rect width="65.875" height="16" fill="white"/>
</clipPath>
</defs>
</svg>
