<svg width="13" height="15" viewBox="0 0 13 15" fill="none" xmlns="http://www.w3.org/2000/svg">
<g clip-path="url(#clip0_1390_5897)">
<path d="M8.09056 13.2883C7.85858 13.8194 7.70523 14.3956 7.64648 15L12.5557 13.9226C12.7877 13.3917 12.9409 12.8153 12.9998 12.2109L8.09056 13.2883Z" fill="#004D5A"/>
<path d="M12.5559 10.6949C12.7879 10.164 12.9413 9.58759 13 8.98324L9.17589 9.82291V8.20876L12.5558 7.46723C12.7878 6.9363 12.9411 6.35989 12.9999 5.75554L9.17577 6.59449V0.789524C8.5898 1.12919 8.0694 1.58132 7.64638 2.11463V6.93021L6.11699 7.26582V0C5.53102 0.339544 5.01062 0.791792 4.5876 1.32511V7.6013L1.16558 8.35203C0.933594 8.88295 0.780134 9.45936 0.721271 10.0637L4.5876 9.21545V11.2482L0.444073 12.1572C0.212091 12.6881 0.0587471 13.2646 0 13.8689L4.33711 12.9174C4.69017 12.8416 4.99362 12.6261 5.19091 12.3295L5.98631 11.1121V11.1118C6.06888 10.9859 6.11699 10.834 6.11699 10.6705V8.87985L7.64638 8.54424V11.7725L12.5558 10.6947L12.5559 10.6949Z" fill="#004D5A"/>
</g>
<defs>
<clipPath id="clip0_1390_5897">
<rect width="13" height="15" fill="white"/>
</clipPath>
</defs>
</svg>
