<svg width="59" height="59" viewBox="0 0 59 59" fill="none" xmlns="http://www.w3.org/2000/svg">
<path d="M25.7633 15.6105C25.7633 15.1114 25.8616 14.6173 26.0583 14.1576C19.0348 15.7334 13.7666 22.0095 13.7666 29.5001C13.7666 30.5178 14.5926 31.3438 15.6104 31.3438C16.6281 31.3438 17.4541 30.5178 17.4541 29.5001C17.4541 23.8877 21.3161 19.1751 26.5204 17.8426C26.0312 17.201 25.7657 16.4168 25.7633 15.6105ZM43.3895 27.6563C42.3718 27.6563 41.5458 28.4823 41.5458 29.5001C41.5458 35.1124 37.6837 39.8251 32.4794 41.1575C33.2858 42.2146 33.4628 43.6232 32.9416 44.845C39.9651 43.2667 45.2333 36.9906 45.2333 29.5001C45.2333 28.4823 44.4073 27.6563 43.3895 27.6563Z" fill="#0A381C"/>
<path d="M50.6541 25.7634C51.1974 25.7658 51.7309 25.8863 52.2226 26.1198C50.5755 15.0401 41.0298 6.50232 29.5002 6.50232C28.4824 6.50232 27.6564 7.32832 27.6564 8.34607C27.6564 9.36382 28.4824 10.1898 29.5002 10.1898C39.0975 10.1898 47.0601 17.2354 48.54 26.4222C49.1619 25.992 49.8994 25.7634 50.6541 25.7634ZM29.5002 48.8102C19.9029 48.8102 11.9403 41.7647 10.4604 32.5779C9.37627 33.3326 7.97257 33.4481 6.78027 32.8802C8.4249 43.9599 17.978 52.4977 29.5002 52.4977C30.5179 52.4977 31.3439 51.6717 31.3439 50.654C31.3439 49.6362 30.5179 48.8102 29.5002 48.8102Z" fill="#2EE378"/>
<path d="M29.5 38.2099C24.689 38.2099 20.7901 34.311 20.7901 29.5001C20.7901 24.6891 24.689 20.7902 29.5 20.7902C34.311 20.7902 38.2099 24.6891 38.2099 29.5001C38.2025 34.3086 34.3085 38.2026 29.5 38.2099ZM29.5 24.4777C26.727 24.4777 24.4776 26.7271 24.4776 29.5001C24.4776 32.2731 26.727 34.5224 29.5 34.5224C32.273 34.5224 34.5224 32.2731 34.5224 29.5001C34.5175 26.7271 32.273 24.4826 29.5 24.4777ZM50.654 27.6071C49.6092 27.6071 48.761 28.4553 48.761 29.5001C48.761 30.5449 49.6092 31.393 50.654 31.393C51.6987 31.393 52.5469 30.5449 52.5469 29.5001C52.5444 28.4553 51.6987 27.6071 50.654 27.6071ZM29.5 13.7126C28.4552 13.7126 27.6071 14.5608 27.6071 15.6056C27.6071 16.6504 28.4552 17.4985 29.5 17.4985C30.5448 17.4985 31.3929 16.6504 31.3929 15.6056C31.3929 14.5608 30.5448 13.7151 29.5 13.7126ZM8.34604 27.6071C7.30125 27.6071 6.45312 28.4553 6.45312 29.5001C6.45312 30.5449 7.30125 31.393 8.34604 31.393C9.39083 31.393 10.239 30.5449 10.239 29.5001C10.239 28.4553 9.39083 27.6071 8.34604 27.6071ZM29.5 41.4967C28.4552 41.4967 27.6071 42.3449 27.6071 43.3896C27.6071 44.4344 28.4552 45.2826 29.5 45.2826C30.5448 45.2826 31.3929 44.4344 31.3929 43.3896C31.3929 42.3449 30.5448 41.4967 29.5 41.4967Z" fill="#0A381C"/>
</svg>
