<svg width="59" height="59" viewBox="0 0 59 59" fill="none" xmlns="http://www.w3.org/2000/svg">
<path d="M29.1313 17.2085C26.6516 17.2085 24.2276 17.9438 22.1658 19.3214C20.104 20.6991 18.4971 22.6572 17.5481 24.9481C16.5992 27.239 16.3509 29.7599 16.8347 32.1919C17.3184 34.624 18.5125 36.858 20.2659 38.6114C22.0193 40.3648 24.2533 41.5588 26.6853 42.0426C29.1174 42.5264 31.6382 42.2781 33.9292 41.3291C36.2201 40.3802 38.1782 38.7732 39.5558 36.7115C40.9334 34.6497 41.6688 32.2257 41.6688 29.746C41.6688 26.4208 40.3478 23.2319 37.9966 20.8806C35.6454 18.5294 32.4564 17.2085 29.1313 17.2085ZM29.1313 39.5302C27.1864 39.5302 25.2852 38.9535 23.6681 37.8729C22.0511 36.7924 20.7907 35.2567 20.0464 33.4599C19.3022 31.6631 19.1074 29.6859 19.4869 27.7784C19.8663 25.871 20.8028 24.1188 22.178 22.7436C23.5533 21.3684 25.3054 20.4319 27.2129 20.0524C29.1203 19.673 31.0975 19.8678 32.8943 20.612C34.6911 21.3563 36.2269 22.6166 37.3074 24.2337C38.3879 25.8508 38.9646 27.752 38.9646 29.6968C38.9678 30.9902 38.7159 32.2716 38.2231 33.4674C37.7304 34.6633 37.0066 35.7502 36.0932 36.6659C35.1798 37.5817 34.0946 38.3082 32.9 38.8039C31.7054 39.2996 30.4247 39.5548 29.1313 39.5548V39.5302Z" fill="#0A381C"/>
<path d="M33.8513 31.2454C33.6376 31.0459 33.4073 30.865 33.1629 30.7046C32.2083 30.129 31.1393 29.7692 30.031 29.6503C28.9226 29.5314 27.8017 29.6563 26.7467 30.0163C25.9413 30.2359 25.1943 30.6304 24.5588 31.1717C24.2966 31.3523 24.0787 31.5899 23.9212 31.8666C23.7637 32.1433 23.6707 32.4519 23.6492 32.7696V35.2279H34.6379V33.2121C34.6617 32.8464 34.6034 32.48 34.4673 32.1397C34.3312 31.7994 34.1207 31.4939 33.8513 31.2454Z" fill="#0A381C"/>
<path d="M29.1312 28.3446C29.6952 28.3397 30.2451 28.1677 30.7113 27.8503C31.1775 27.5329 31.5391 27.0844 31.7505 26.5615C31.9618 26.0386 32.0133 25.4648 31.8985 24.9126C31.7837 24.3604 31.5078 23.8546 31.1055 23.4593C30.7033 23.0639 30.1929 22.7967 29.6388 22.6915C29.0847 22.5862 28.5118 22.6476 27.9926 22.8679C27.4735 23.0882 27.0312 23.4575 26.7219 23.9292C26.4126 24.4008 26.2501 24.9535 26.255 25.5175C26.2679 26.2718 26.5766 26.9908 27.1146 27.5196C27.6526 28.0484 28.3769 28.3447 29.1312 28.3446Z" fill="#0A381C"/>
<path d="M51.084 26.3533H48.5273L50.4202 28.2462H44.9873V30.4587H50.4202L48.5273 32.3762H51.084L54.0831 29.3524L51.084 26.3533Z" fill="#2EE378"/>
<path d="M43.1191 20.8959L44.6924 22.4692L47.1015 20.0846V22.7642L48.8961 20.9451V16.6921H44.6432L42.8486 18.5113H45.5282L43.1191 20.8959Z" fill="#0A381C"/>
<path d="M47.1015 38.9154L44.6924 36.5308L43.1191 38.0796L45.5282 40.4888H42.8486L44.6432 42.2833H48.8961V38.0304L47.1015 36.2358V38.9154Z" fill="#0A381C"/>
<path d="M8.23533 26.1812C7.58001 26.1861 6.9408 26.3849 6.39828 26.7525C5.85576 27.1201 5.43421 27.6401 5.18679 28.2469C4.93937 28.8537 4.87714 29.5202 5.00796 30.1624C5.13878 30.8045 5.45678 31.3936 5.92188 31.8553C6.38698 32.3169 6.97835 32.6306 7.62145 32.7567C8.26454 32.8827 8.93057 32.8156 9.53556 32.5637C10.1405 32.3118 10.6574 31.8864 11.021 31.3412C11.3846 30.796 11.5786 30.1553 11.5787 29.5C11.5787 29.0621 11.492 28.6285 11.3237 28.2243C11.1554 27.82 10.9087 27.453 10.5979 27.1445C10.2872 26.8361 9.9184 26.5921 9.51291 26.4268C9.10742 26.2614 8.67322 26.178 8.23533 26.1812ZM8.23533 31.3437C7.86477 31.3437 7.50259 31.2335 7.19483 31.0271C6.88707 30.8207 6.64765 30.5274 6.50699 30.1846C6.36633 29.8418 6.33079 29.4649 6.4049 29.1018C6.479 28.7387 6.6594 28.4059 6.92316 28.1456C7.18691 27.8853 7.52211 27.7093 7.88614 27.64C8.25016 27.5707 8.62657 27.6113 8.96751 27.7565C9.30844 27.9016 9.5985 28.1449 9.80081 28.4554C10.0031 28.7659 10.1085 29.1295 10.1037 29.5C10.0972 29.9912 9.89751 30.4602 9.54782 30.8052C9.19814 31.1503 8.72661 31.3438 8.23533 31.3437Z" fill="#0A381C"/>
</svg>
