<svg width="133" height="31" viewBox="0 0 133 31" fill="none" xmlns="http://www.w3.org/2000/svg">
<path d="M14.0534 17.9261H12.7758C12.5792 17.9261 12.4482 17.9935 12.3499 18.162L7.23957 26.6196L2.12922 18.162C2.03095 17.9935 1.89991 17.9261 1.70336 17.9261H0.393016C0.163706 17.9261 0.0654297 18.0609 0.0654297 18.2967V30.562C0.0654297 30.7978 0.163706 30.9326 0.393016 30.9326H1.44129C1.6706 30.9326 1.80164 30.7978 1.80164 30.562V20.8913L6.4206 28.4054C6.55164 28.6076 6.64991 28.6413 6.84647 28.6413H7.59991C7.76371 28.6413 7.9275 28.6076 8.02578 28.4054L12.6447 20.925V30.562C12.6447 30.7978 12.7758 30.9326 13.0051 30.9326H14.0534C14.2827 30.9326 14.4137 30.7978 14.4137 30.562V18.2967C14.4137 18.0609 14.2827 17.9261 14.0534 17.9261Z" fill="#2EE378"/>
<path fill-rule="evenodd" clip-rule="evenodd" d="M26.6984 24.6315V26.8554C26.6984 29.5847 26.0105 30.9326 22.9967 30.9326H20.0484C17.0674 30.9326 16.3467 29.5847 16.3467 26.8554V24.6315C16.3467 21.9358 17.0674 20.588 20.0484 20.588H22.9967C26.0105 20.588 26.6984 21.9358 26.6984 24.6315ZM25.0277 24.4967C25.0277 22.6434 24.6346 22.2391 22.9639 22.2391H20.0812C18.4105 22.2391 18.0174 22.6434 18.0174 24.4967V26.9902C18.0174 28.9108 18.4105 29.3152 20.0812 29.3152H22.9639C24.6346 29.3152 25.0277 28.9108 25.0277 26.9902V24.4967Z" fill="#2EE378"/>
<path fill-rule="evenodd" clip-rule="evenodd" d="M37.9019 23.6206V30.5619C37.9019 30.7978 37.7709 30.9326 37.5415 30.9326H36.5588C36.3295 30.9326 36.1984 30.7978 36.1984 30.5619V29.3489C35.7398 30.4271 35.0519 30.9326 33.0864 30.9326H31.7433C29.3519 30.9326 28.0088 30.0565 28.0088 28.1021C28.0088 26.0804 28.7622 25.238 31.2191 24.9684L35.6415 24.463C36.0674 24.3956 36.1984 24.1597 36.1984 23.7217C36.1984 22.5424 35.8709 22.2391 34.364 22.2391H29.1553C28.926 22.2391 28.795 22.1043 28.795 21.8684V20.9587C28.795 20.7228 28.926 20.588 29.1553 20.588H34.3967C36.9847 20.588 37.9019 21.5315 37.9019 23.6206ZM36.1984 25.9456L31.4812 26.4511C30.0398 26.5858 29.7122 26.9565 29.7122 27.9337C29.7122 28.8434 30.3346 29.3489 31.7433 29.3489H33.7743C35.6415 29.3489 36.1984 28.675 36.1984 26.9565V25.9456Z" fill="#2EE378"/>
<path d="M46.0912 20.588H41.9964V18.2967C41.9964 18.0609 41.8654 17.9261 41.636 17.9261H41.1774C40.9372 17.9261 40.8171 18.0609 40.8171 18.3304C40.7843 20.4196 40.6533 20.5544 39.2119 20.588C38.9826 20.588 38.8516 20.7228 38.8516 20.9587V21.8348C38.8516 22.0707 38.9826 22.2054 39.2119 22.2054H40.2929V27.0239C40.2929 29.6185 41.0464 30.9326 44.2895 30.9326H46.0912C46.3205 30.9326 46.4516 30.7978 46.4516 30.562V29.7196C46.4516 29.4837 46.3205 29.3489 46.0912 29.3489H44.2895C42.4878 29.3489 41.9964 28.8435 41.9964 27.1924V22.2054H46.0912C46.3205 22.2054 46.4516 22.0707 46.4516 21.8348V20.9587C46.4516 20.7228 46.3205 20.588 46.0912 20.588Z" fill="#2EE378"/>
<path d="M59.6532 20.588H59.2601C57.5567 20.588 56.6067 21.0934 56.1153 22.0706C55.6239 21.0261 54.6412 20.588 52.9377 20.588H52.5446C50.9067 20.588 50.0877 21.0261 49.6946 21.9358V20.9587C49.6946 20.7228 49.5636 20.588 49.3343 20.588H48.3843C48.155 20.588 48.0239 20.7228 48.0239 20.9587V30.5619C48.0239 30.7978 48.155 30.9326 48.3843 30.9326H49.3343C49.5636 30.9326 49.6946 30.7978 49.6946 30.5619V24.5304C49.6946 22.5761 50.3498 22.2391 51.7584 22.2391H52.7739C54.4119 22.2391 54.805 22.6434 54.805 24.5304V30.5956C54.805 30.8315 54.936 30.9663 55.1653 30.9663H56.1481C56.3774 30.9663 56.4756 30.8315 56.4756 30.5956V24.5304C56.4756 22.5761 57.1308 22.2391 58.5394 22.2391H59.555C61.2256 22.2391 61.6188 22.6434 61.6188 24.5304V30.5956C61.6188 30.8315 61.7498 30.9663 61.9791 30.9663H62.9619C63.1912 30.9663 63.2894 30.8315 63.2894 30.5956V24.6652C63.2894 21.9358 62.5688 20.588 59.6532 20.588Z" fill="#2EE378"/>
<path d="M71.5122 20.588H67.4173V18.2967C67.4173 18.0609 67.2863 17.9261 67.057 17.9261H66.5656C66.3472 17.9261 66.238 18.0609 66.238 18.3304C66.2053 20.4196 66.0742 20.5544 64.6001 20.588C64.3708 20.588 64.2397 20.7228 64.2397 20.9587V21.8348C64.2397 22.0707 64.3708 22.2054 64.6001 22.2054H65.7139V27.0239C65.7139 29.6185 66.4673 30.9326 69.6777 30.9326H71.5122C71.7415 30.9326 71.8725 30.7978 71.8725 30.562V29.7196C71.8725 29.4837 71.7415 29.3489 71.5122 29.3489H69.6777C67.9087 29.3489 67.4173 28.8435 67.4173 27.1924V22.2054H71.5122C71.7415 22.2054 71.8725 22.0707 71.8725 21.8348V20.9587C71.8725 20.7228 71.7415 20.588 71.5122 20.588Z" fill="#2EE378"/>
<path fill-rule="evenodd" clip-rule="evenodd" d="M71.8725 6.57061V9.13148C71.8725 10.4119 70.8243 11.4902 69.5467 11.4902H64.1415C63.945 11.4902 63.8139 11.3554 63.8139 11.1532V10.3445C63.3881 11.0521 62.6674 11.4902 61.8484 11.4902H55.657C55.4605 13.4445 54.5432 14.4554 51.726 14.4554H49.8915C49.6622 14.4554 49.5312 14.3206 49.5312 14.0847V13.2087C49.5312 12.9728 49.6622 12.838 49.8915 12.838H51.726C53.1674 12.838 53.7898 12.501 53.9536 11.4902H49.7277V11.5239C48.4501 11.5239 47.4019 10.4456 47.4019 9.13148V6.60431C47.4019 5.29017 48.4501 4.21191 49.7277 4.21191H53.4622C53.9536 4.21191 54.4122 4.38039 54.8053 4.68365C55.3294 5.05431 55.657 5.69452 55.6898 6.40213C55.6898 6.46952 55.6898 6.52568 55.6898 6.57061V9.7717H61.8484C62.1105 9.7717 62.3725 9.60322 62.4381 9.33365L63.6174 5.79561C63.945 4.85213 64.8294 4.21191 65.8122 4.21191H69.5467C70.8243 4.21191 71.8725 5.29017 71.8725 6.57061ZM49.5639 9.7717H54.0191V6.46952C53.9863 6.30104 53.9208 6.13257 53.8225 6.06517C53.7133 5.99778 53.5932 5.95286 53.4622 5.93039H49.7277C49.3674 5.93039 49.0725 6.23365 49.0725 6.60431V9.13148C49.0725 9.43474 49.3019 9.70431 49.5639 9.7717ZM70.2019 6.57061C70.2019 6.23365 69.907 5.93039 69.5467 5.93039H65.8122C65.5174 5.93039 65.2881 6.09887 65.1898 6.36844L64.076 9.7717C64.0978 9.7717 64.1197 9.7717 64.1415 9.7717H69.5467C69.907 9.7717 70.2019 9.46844 70.2019 9.13148V6.57061Z" fill="#2EE378"/>
<path fill-rule="evenodd" clip-rule="evenodd" d="M26.9603 11.4902H17.1C15.9207 11.4902 14.8397 10.9174 14.1517 10.0413C13.5293 10.85 12.5793 11.3891 11.4983 11.4902H3.8C1.70345 11.4902 0 9.73801 0 7.58148V4.54887C0 4.3467 0.163793 4.17822 0.327586 4.17822H1.3431C1.53965 4.17822 1.67069 4.3467 1.67069 4.54887V7.58148C1.67069 8.79453 2.62069 9.7717 3.8 9.7717H11.2034C12.3828 9.7717 13.3328 8.79453 13.3328 7.58148V4.54887C13.3328 4.3467 13.4638 4.17822 13.6603 4.17822H14.6431C14.8397 4.17822 15.0034 4.3467 15.0034 4.54887V4.61626C15.0034 4.63873 15.0034 4.64996 15.0034 4.64996V7.58148C15.0034 8.79453 15.9534 9.7717 17.1 9.7717H19.4914H26.9603C27.2224 9.7717 27.4845 9.60322 27.55 9.33366L28.7293 5.79561C29.0569 4.85213 29.9414 4.21192 30.9569 4.21192H34.6586C35.969 4.21192 36.9845 5.29018 36.9845 6.57061V9.13148C36.9845 9.35612 36.9626 9.56953 36.919 9.7717H41.7345C42.9138 9.7717 43.831 8.79453 43.831 7.58148V4.54887C43.831 4.3467 43.9948 4.17822 44.1914 4.17822H45.1741C45.3707 4.17822 45.5017 4.3467 45.5017 4.54887V7.58148C45.5017 9.73801 43.7983 11.4902 41.7345 11.4902H29.2534C29.0569 11.4902 28.9259 11.3554 28.9259 11.1532V10.3445C28.5 11.0184 27.7793 11.4902 26.9603 11.4902ZM29.1879 9.7717C29.2098 9.7717 29.2316 9.7717 29.2534 9.7717H33.3483H34.0034H34.6586C35.0517 9.7717 35.3138 9.46844 35.3138 9.13148V6.57061C35.3138 6.23366 35.019 5.9304 34.6586 5.9304H30.9569C30.6621 5.9304 30.4 6.09887 30.3017 6.36844L29.1879 9.7717Z" fill="#2EE378"/>
<path d="M49.8261 2.89783H50.383H51.4313H53.2657C53.4623 2.89783 53.5606 2.79674 53.5606 2.62826V2.15652C53.5606 1.98804 53.4623 1.88696 53.2657 1.88696H51.4313C51.5295 1.17935 51.8899 0.977174 52.8071 0.977174H53.3312C53.4623 0.977174 53.5606 0.876086 53.5606 0.741303V0.235869C53.5606 0.0673903 53.4623 0 53.3312 0H52.8071C51.0382 0 50.514 0.640217 50.4157 1.88696H49.8261C49.6295 1.88696 49.5312 1.97681 49.5312 2.15652V2.62826C49.5312 2.80797 49.6295 2.89783 49.8261 2.89783Z" fill="#2EE378"/>
<path d="M43.1104 3.40325C43.8311 3.40325 44.2242 2.9652 44.2242 2.2239C44.2242 1.4826 43.8311 1.07825 43.1104 1.07825C42.3897 1.07825 41.9639 1.4826 41.9639 2.2239C41.9639 2.9652 42.3897 3.40325 43.1104 3.40325Z" fill="#2EE378"/>
<path d="M46.0913 1.07825C45.3706 1.07825 44.9775 1.4826 44.9775 2.2239C44.9775 2.9652 45.3706 3.40325 46.0913 3.40325C46.812 3.40325 47.2051 2.9652 47.2051 2.2239C47.2051 1.4826 46.812 1.07825 46.0913 1.07825Z" fill="#2EE378"/>
<path d="M5.9947 5.35759C6.71539 5.35759 7.07573 4.95324 7.07573 4.21194C7.07573 3.47064 6.71539 3.03259 5.9947 3.03259C5.24125 3.03259 4.84814 3.47064 4.84814 4.21194C4.84814 4.95324 5.24125 5.35759 5.9947 5.35759Z" fill="#2EE378"/>
<path d="M8.9429 5.35759C9.66358 5.35759 10.0894 4.95324 10.0894 4.21194C10.0894 3.47064 9.66358 3.03259 8.9429 3.03259C8.22221 3.03259 7.8291 3.47064 7.8291 4.21194C7.8291 4.95324 8.22221 5.35759 8.9429 5.35759Z" fill="#2EE378"/>
<path fill-rule="evenodd" clip-rule="evenodd" d="M133 10.075V20.925C133 26.4174 128.545 31 123.008 31H117.472C113.574 31 103.845 31 99.9136 31C99.0291 31 98.505 30.4272 98.505 29.5174V25.5076C96.736 28.7087 93.7549 31 90.1843 31H82.3222C81.4377 31 80.9136 30.4609 80.9136 29.5511V25.137C80.9136 24.3957 81.4377 23.6543 82.3222 23.6543C84.9429 23.6543 87.5636 23.6543 90.1843 23.6543C91.2653 23.6543 92.3136 22.9467 92.6739 21.8348L97.686 6.77283C99.0946 2.76304 102.862 0 107.12 0H123.008C128.545 0 133 4.58261 133 10.075ZM125.858 10.075C125.858 8.62609 124.614 7.34565 123.008 7.34565H107.12C105.876 7.34565 104.795 8.05326 104.467 9.16522L99.586 23.7891C99.717 23.7554 99.7825 23.6543 99.9136 23.6543C107.011 23.6543 114.098 23.6543 121.174 23.6543H123.008C124.614 23.6543 125.858 22.3739 125.858 20.925V10.075Z" fill="#2EE378"/>
</svg>
