<svg width="59" height="59" viewBox="0 0 59 59" fill="none" xmlns="http://www.w3.org/2000/svg">
<path fill-rule="evenodd" clip-rule="evenodd" d="M30.3516 4.91675C32.0956 4.91675 33.5711 5.88351 34.7763 7.51575C35.7582 8.84542 36.6061 10.6797 37.3091 12.9307C38.6914 17.3565 39.4723 23.2683 39.4723 29.5581C39.4723 35.8479 38.6914 41.7596 37.3091 46.1855C36.6061 48.4364 35.7582 50.2707 34.7763 51.6004C33.5711 53.2326 32.0956 54.1994 30.3516 54.1994C26.3614 54.1994 23.8933 50.713 22.577 44.7626C22.5369 44.5817 22.5268 44.4015 22.5435 44.2264L26.5506 44.227C27.0912 46.6333 27.7697 48.9977 28.5246 49.7804C29.0277 50.302 29.5384 50.4887 30.3516 50.4887C30.3664 50.4887 30.3849 50.4857 30.415 50.4759C30.4711 50.4576 30.5422 50.4229 30.6279 50.3667C30.8752 50.2047 31.1631 49.918 31.467 49.5064C32.1757 48.5466 32.8639 47.0579 33.4583 45.1549C34.728 41.0895 35.4638 35.5193 35.4638 29.5581C35.4638 23.5969 34.728 18.0266 33.4583 13.9612C32.8639 12.0582 32.1757 10.5695 31.467 9.6097C31.1631 9.19814 30.8752 8.91145 30.6279 8.74942C30.5422 8.69326 30.4711 8.65847 30.415 8.64022C30.3849 8.63044 30.3664 8.62744 30.3516 8.62744C29.6989 8.62744 29.1224 8.93367 28.4927 9.76692C27.6904 10.8284 26.991 12.5623 26.4511 15.0031L22.368 15.0021C23.02 11.7262 23.9547 9.29823 25.2082 7.63971C26.556 5.85645 28.3248 4.91675 30.3516 4.91675ZM30.8914 35.6459V39.3566H11.4102C10.3855 39.3566 9.55487 38.5259 9.55487 37.5013C9.55487 36.4766 10.3855 35.6459 11.4102 35.6459H30.8914ZM52.2278 31.7034C53.2525 31.7034 54.0832 32.5341 54.0832 33.5587C54.0832 34.5834 53.2525 35.4141 52.2278 35.4141L43.0252 35.4164C43.1776 34.2078 43.2866 32.9673 43.3499 31.7045L52.2278 31.7034ZM30.8914 27.7607V31.4714H6.77185C5.74717 31.4714 4.9165 30.6407 4.9165 29.616C4.9165 28.5914 5.74717 27.7607 6.77185 27.7607H30.8914ZM43.1451 23.8155L52.2278 23.8182C53.2525 23.8182 54.0832 24.6488 54.0832 25.6735C54.0832 26.6128 53.3852 27.3891 52.4796 27.5119L52.2278 27.5289L43.3916 27.5279C43.354 26.2681 43.2711 25.0275 43.1451 23.8155ZM30.8914 19.8755V23.5862H11.4102C10.3855 23.5862 9.55487 22.7555 9.55487 21.7308C9.55487 20.7915 10.2529 20.0153 11.1585 19.8924L11.4102 19.8755H30.8914Z" fill="#0A381C"/>
</svg>
