<svg width="56" height="16" viewBox="0 0 56 16" fill="none" xmlns="http://www.w3.org/2000/svg">
<g clip-path="url(#clip0_1390_5418)">
<path d="M6.23707 0.505347C6.34746 0.505347 6.40266 0.561286 6.51305 0.617226C5.8507 0.896924 5.18836 1.62413 4.85719 3.19043L3.64289 3.52607C4.02926 2.40728 4.80199 0.505347 6.23707 0.505347ZM6.84422 1.06474C6.95461 1.40038 7.065 1.79195 7.065 2.40728C7.065 2.46322 7.065 2.46322 7.065 2.51916L5.46433 2.96668C5.79551 1.79195 6.34746 1.2885 6.84422 1.06474ZM8.27929 2.07165L7.56176 2.29541C7.56176 2.23947 7.56176 2.18353 7.56176 2.12759C7.56176 1.62413 7.50656 1.23256 7.39617 0.896924C7.78254 1.0088 8.11371 1.51226 8.27929 2.07165ZM11.867 2.96668C11.867 2.91074 11.8118 2.8548 11.7566 2.8548C11.6462 2.8548 10.4871 2.74292 10.4871 2.74292C10.4871 2.74292 9.65918 1.90383 9.54879 1.84789C9.4384 1.73601 9.27281 1.79195 9.21762 1.79195C9.21762 1.79195 9.05203 1.84789 8.77605 1.95977C8.50008 1.17662 8.00332 0.449408 7.17539 0.449408H7.12019C6.89941 0.113772 6.56824 0.00189356 6.29226 0.00189356C4.30523 -0.0540457 3.36691 2.46322 3.03574 3.74983C2.59418 3.8617 2.15262 4.02952 1.65586 4.19734C1.2143 4.30922 1.2143 4.36516 1.1591 4.75673C1.10391 5.03643 0 13.8748 0 13.8748L8.77605 15.553L13.5228 14.4901C13.5228 14.4901 11.867 3.07855 11.867 2.96668Z" fill="#8DB849"/>
<path d="M11.7015 2.85484C11.6463 2.85484 10.4872 2.74296 10.4872 2.74296C10.4872 2.74296 9.65925 1.90387 9.54886 1.84793C9.49366 1.79199 9.49366 1.79199 9.43847 1.79199L8.77612 15.5531L13.5229 14.4902C13.5229 14.4902 11.8671 3.07859 11.8671 2.96672C11.8671 2.91078 11.7567 2.85484 11.7015 2.85484Z" fill="#5A863E"/>
<path d="M7.1754 5.53975L6.56825 7.3298C6.56825 7.3298 6.07149 7.05011 5.40915 7.05011C4.47083 7.05011 4.41563 7.6095 4.41563 7.77732C4.41563 8.56044 6.51306 8.89609 6.51306 10.798C6.51306 12.3084 5.57474 13.2594 4.30524 13.2594C2.81497 13.2594 2.04224 12.3084 2.04224 12.3084L2.4286 10.9658C2.4286 10.9658 3.20134 11.6371 3.86368 11.6371C4.30524 11.6371 4.47083 11.3015 4.47083 11.0218C4.47083 9.95896 2.75978 9.90305 2.75978 8.16888C2.75978 6.71447 3.80849 5.31599 5.85071 5.31599C6.78903 5.26005 7.1754 5.53975 7.1754 5.53975Z" fill="#FFFFFE"/>
<path d="M19.0976 8.84015C18.6009 8.56041 18.3801 8.33667 18.3801 8.05702C18.3801 7.66543 18.7113 7.44166 19.2632 7.44166C19.8704 7.44166 20.4223 7.72136 20.4223 7.72136L20.8639 6.37881C20.8639 6.37881 20.4775 6.04318 19.3184 6.04318C17.6625 6.04318 16.5586 6.99415 16.5586 8.33667C16.5586 9.11981 17.1106 9.6792 17.7729 10.0708C18.3249 10.4064 18.5457 10.6302 18.5457 10.9658C18.5457 11.3015 18.2697 11.6371 17.7177 11.6371C16.945 11.6371 16.1723 11.2455 16.1723 11.2455L15.7307 12.5881C15.7307 12.5881 16.3931 13.0356 17.5522 13.0356C19.208 13.0356 20.4223 12.1965 20.4223 10.6862C20.4223 9.84702 19.8152 9.23172 19.0976 8.84015ZM25.7763 5.98724C24.9483 5.98724 24.286 6.37882 23.7892 6.99415L24.5068 3.19028H22.6301L20.8087 12.8678H22.6853L23.2925 9.56737C23.5132 8.33667 24.1756 7.55355 24.7827 7.55355C25.2243 7.55355 25.3899 7.83324 25.3899 8.28076C25.3899 8.56041 25.3899 8.84015 25.3347 9.11981L24.6172 12.9237H26.4938L27.2113 9.00798C27.2665 8.61641 27.3217 8.11293 27.3217 7.7773C27.3217 6.65851 26.7698 5.98724 25.7763 5.98724ZM30.5782 11.5252C29.9159 11.5252 29.6951 10.9658 29.6951 10.2946C29.6951 9.23172 30.2471 7.44166 31.2406 7.44166C31.9029 7.44166 32.1237 8.00102 32.1237 8.56041C32.1237 9.79111 31.5718 11.5252 30.5782 11.5252ZM31.5166 5.98724C29.2536 5.98724 27.7633 8.05702 27.7633 10.3505C27.7633 11.8049 28.6464 12.9796 30.3575 12.9796C32.5653 12.9796 34.0556 10.9658 34.0556 8.61641C34.0556 7.27385 33.2828 5.98724 31.5166 5.98724ZM37.0361 11.5812C36.5393 11.5812 36.2634 11.3015 36.2634 11.3015L36.5945 9.51145C36.8153 8.33667 37.4225 7.55355 38.0848 7.55355C38.6368 7.55355 38.8575 8.11293 38.8575 8.61641C38.8023 9.84702 38.0848 11.5812 37.0361 11.5812ZM38.8575 5.98724C37.5881 5.98724 36.8705 7.10603 36.8705 7.10603L36.9809 6.09912H35.325C35.2698 6.77039 35.1043 7.83324 34.9387 8.61641L33.614 15.5529H35.4906L35.9874 12.7559H36.0426C36.0426 12.7559 36.4289 12.9796 37.1465 12.9796C39.3543 12.9796 40.7894 10.6862 40.7894 8.39267C40.7894 7.16196 40.2374 5.98724 38.8575 5.98724ZM43.4388 3.30216C42.8316 3.30216 42.39 3.80561 42.39 4.42094C42.39 4.98033 42.7212 5.37191 43.2732 5.37191C43.8803 5.37191 44.3771 4.98033 44.3771 4.25312C44.3771 3.69373 43.9907 3.30216 43.4388 3.30216ZM40.8446 12.8678H42.7212L43.9907 6.15506H42.1141L40.8446 12.8678ZM48.7375 6.15506H47.4128L47.468 5.81942C47.5784 5.14815 47.9648 4.58876 48.5719 4.58876C48.9031 4.58876 49.1791 4.70064 49.1791 4.70064L49.5654 3.19028C49.5654 3.19028 49.2343 3.02246 48.5719 3.02246C47.9096 3.02246 47.2472 3.19028 46.7505 3.63779C46.0881 4.19718 45.8122 4.98033 45.6466 5.76348L45.5914 6.09912H44.7082L44.4323 7.55355H45.3154L44.3219 12.8678H46.1985L47.192 7.55355H48.4615L48.7375 6.15506ZM53.2083 6.15506C53.2083 6.15506 52.0492 9.11981 51.4973 10.7421C51.4421 10.2386 51.0557 6.15506 51.0557 6.15506H49.0687L50.1726 12.3084C50.1726 12.4202 50.1726 12.5322 50.1174 12.644C49.8966 13.0915 49.5102 13.4831 49.1239 13.7628C48.7927 14.0425 48.3511 14.2103 48.0752 14.3222L48.5719 15.9444C48.9583 15.8885 49.731 15.5529 50.3934 14.9376C51.2213 14.1544 52.0492 12.8678 52.822 11.1896L55.085 6.211L53.2083 6.15506Z" fill="white"/>
</g>
<defs>
<clipPath id="clip0_1390_5418">
<rect width="55.1953" height="16" fill="white"/>
</clipPath>
</defs>
</svg>
