<svg width="40" height="49" viewBox="0 0 40 49" fill="none" xmlns="http://www.w3.org/2000/svg">
<path fill-rule="evenodd" clip-rule="evenodd" d="M17.7625 11.3329L9.42875 6.41628C9.21228 6.29532 9.02243 6.13193 8.87056 5.93589C8.7187 5.73985 8.60794 5.5152 8.54492 5.27536C8.48189 5.03553 8.4679 4.78544 8.50377 4.54007C8.53963 4.2947 8.62463 4.05909 8.75367 3.84733C8.88271 3.63557 9.05314 3.45202 9.25477 3.30766C9.45639 3.16329 9.68507 3.06109 9.92711 3.00715C10.1691 2.95322 10.4196 2.94866 10.6634 2.99376C10.9073 3.03885 11.1395 3.13268 11.3463 3.26961L19.6063 8.18628L17.7625 11.3329Z" fill="#0A381C"/>
<path fill-rule="evenodd" clip-rule="evenodd" d="M18.4016 19.8141L1.61114 10.1037C1.40129 9.98264 1.21735 9.82144 1.06981 9.62929C0.922274 9.43714 0.814026 9.21781 0.751249 8.98382C0.624467 8.51127 0.690598 8.00771 0.935094 7.58391C1.17959 7.16012 1.58243 6.85081 2.05498 6.72403C2.52753 6.59725 3.03109 6.66338 3.45489 6.90787L18.4016 15.5612V19.8141Z" fill="#0A381C"/>
<path fill-rule="evenodd" clip-rule="evenodd" d="M38.265 7.57171C38.0151 7.17074 37.6226 6.87934 37.1665 6.75618C36.7103 6.63302 36.2245 6.68725 35.8067 6.90796L21.4255 15.1188V11.3084L29.7592 6.39171C30.1612 6.14229 30.4502 5.74609 30.5649 5.28714C30.6796 4.8282 30.6111 4.34261 30.3738 3.93337C30.1202 3.53616 29.7241 3.25114 29.2669 3.13684C28.8097 3.02254 28.3261 3.08765 27.9155 3.31879L18.7213 8.67796C18.4298 8.84908 18.1881 9.09331 18.0199 9.38648C17.8518 9.67966 17.7631 10.0116 17.7625 10.3496V46.0938C17.7326 46.3521 17.7576 46.6139 17.8359 46.8618C17.9143 47.1098 18.0442 47.3384 18.2172 47.5326C18.3901 47.7268 18.6022 47.8822 18.8395 47.9887C19.0768 48.0951 19.3339 48.1501 19.594 48.1501C19.8541 48.1501 20.1112 48.0951 20.3485 47.9887C20.5858 47.8822 20.7979 47.7268 20.9708 47.5326C21.1438 47.3384 21.2737 47.1098 21.3521 46.8618C21.4304 46.6139 21.4554 46.3521 21.4255 46.0938V19.3963L37.5767 10.1038C38.0012 9.85688 38.3114 9.45278 38.4402 8.97892C38.569 8.50506 38.5061 7.99953 38.265 7.57171Z" fill="#0A381C"/>
<path d="M19.6063 4.13C20.7467 4.13 21.6713 3.20547 21.6713 2.065C21.6713 0.924532 20.7467 0 19.6063 0C18.4658 0 17.5413 0.924532 17.5413 2.065C17.5413 3.20547 18.4658 4.13 19.6063 4.13Z" fill="#0A381C"/>
<path d="M13.3867 21.068C13.6692 21.2223 13.905 21.4498 14.0693 21.7266C14.2337 22.0035 14.3205 22.3194 14.3208 22.6413V32.6713C14.3223 32.9969 14.2365 33.3169 14.0722 33.598C13.9078 33.879 13.6711 34.1108 13.3867 34.2692C13.1082 34.4246 12.7958 34.509 12.4771 34.5151C12.1509 34.5063 11.8311 34.4222 11.5429 34.2692L0.922903 28.148C0.499109 27.9035 0.189799 27.5006 0.0630167 27.0281C-0.0637657 26.5555 0.00236612 26.052 0.246863 25.6282C0.491359 25.2044 0.894192 24.8951 1.36675 24.7683C1.8393 24.6415 2.34286 24.7076 2.76665 24.9521L10.6333 29.4755V23.723L7.06874 21.6826C6.66319 21.4368 6.36793 21.0442 6.24432 20.5864C6.12071 20.1286 6.17825 19.6407 6.40499 19.2242C6.64642 18.8139 7.03906 18.5146 7.49866 18.3905C7.95826 18.2664 8.44819 18.3275 8.86332 18.5605L13.3867 21.068Z" fill="#2EE378"/>
<path d="M3.01251 19.298C4.15298 19.298 5.07751 18.3734 5.07751 17.233C5.07751 16.0925 4.15298 15.168 3.01251 15.168C1.87204 15.168 0.94751 16.0925 0.94751 17.233C0.94751 18.3734 1.87204 19.298 3.01251 19.298Z" fill="#0A381C"/>
<path d="M30.2507 18.4866C30.6659 18.2536 31.1558 18.1926 31.6154 18.3167C32.075 18.4408 32.4676 18.7401 32.7091 19.1504C32.9358 19.5669 32.9933 20.0547 32.8697 20.5125C32.7461 20.9703 32.4509 21.3629 32.0453 21.6087L28.4807 23.6491V29.4016L36.3474 24.8783C36.5572 24.7572 36.7889 24.6787 37.0291 24.6471C37.2693 24.6156 37.5133 24.6317 37.7473 24.6944C37.9813 24.7572 38.2006 24.8655 38.3928 25.013C38.5849 25.1606 38.7461 25.3445 38.8672 25.5543C38.9883 25.7642 39.0668 25.9958 39.0983 26.236C39.1299 26.4762 39.1138 26.7203 39.051 26.9542C38.9883 27.1882 38.88 27.4076 38.7325 27.5997C38.5849 27.7919 38.401 27.9531 38.1911 28.0741L27.5711 34.1954C27.2829 34.3483 26.9632 34.4325 26.637 34.4412C26.3182 34.4352 26.0058 34.3507 25.7274 34.1954C25.4429 34.037 25.2062 33.8052 25.0419 33.5241C24.8776 33.243 24.7917 32.923 24.7932 32.5975V22.6412C24.7935 22.3193 24.8804 22.0034 25.0447 21.7265C25.2091 21.4497 25.4449 21.2222 25.7274 21.0679L30.2507 18.4866Z" fill="#2EE378"/>
<path d="M36.1509 19.298C37.2914 19.298 38.2159 18.3734 38.2159 17.233C38.2159 16.0925 37.2914 15.168 36.1509 15.168C35.0105 15.168 34.0859 16.0925 34.0859 17.233C34.0859 18.3734 35.0105 19.298 36.1509 19.298Z" fill="#0A381C"/>
</svg>
