<svg width="45" height="12" viewBox="0 0 45 12" fill="none" xmlns="http://www.w3.org/2000/svg">
<g clip-path="url(#clip0_1390_5426)">
<path fill-rule="evenodd" clip-rule="evenodd" d="M3.32507 5.93085C2.82662 5.57753 2.22723 5.38194 1.6089 5.38194C0.990579 5.38194 1.05998 5.628 1.05998 5.93085C1.05998 6.23371 1.30605 6.47978 1.6089 6.47978C2.22723 6.47978 2.82662 6.28418 3.32507 5.93085ZM5.93085 8.53661C5.57753 9.03506 5.38194 9.63445 5.38194 10.2528C5.38194 10.8712 5.628 10.8017 5.93085 10.8017C6.23371 10.8017 6.47978 10.5557 6.47978 10.2528C6.47978 9.63445 6.28418 9.03506 5.93085 8.53661ZM8.53661 5.93085C9.03506 6.28418 9.63445 6.47978 10.2528 6.47978C10.8712 6.47978 10.8017 6.23371 10.8017 5.93085C10.8017 5.628 10.5557 5.38194 10.2528 5.38194C9.63445 5.38194 9.03506 5.57753 8.53661 5.93085ZM5.93085 4.88349L4.88349 5.93085L5.93085 6.97822L6.97822 5.93085L5.93085 4.88349ZM6.66275 4.11375C7.2306 3.40709 7.53976 2.52377 7.53976 1.6089C7.53976 0.694037 6.82049 0 5.93085 0C5.04123 0 4.32196 0.719274 4.32196 1.6089C4.32196 2.49853 4.63742 3.40709 5.19896 4.11375L4.11374 5.19896C3.40708 4.63112 2.52377 4.32196 1.6089 4.32196C0.694037 4.32196 0 5.04123 0 5.93085C0 6.82049 0.719274 7.53976 1.6089 7.53976C2.49853 7.53976 3.40708 7.22429 4.11374 6.66275L5.19896 7.74797C4.63112 8.45461 4.32196 9.33791 4.32196 10.2528C4.32196 11.1677 5.04123 11.8617 5.93085 11.8617C6.82049 11.8617 7.53976 11.1424 7.53976 10.2528C7.53976 9.36319 7.22429 8.45461 6.66275 7.74797L7.74797 6.66275C8.45461 7.2306 9.33791 7.53976 10.2528 7.53976C11.1677 7.53976 11.8617 6.82049 11.8617 5.93085C11.8617 5.04123 11.1424 4.32196 10.2528 4.32196C9.36319 4.32196 8.45461 4.63742 7.74797 5.19896L6.66275 4.11375ZM5.93085 1.05998C5.628 1.05998 5.38194 1.30605 5.38194 1.6089C5.38194 2.22723 5.57753 2.82662 5.93085 3.32507C6.28418 2.82662 6.47978 2.22723 6.47978 1.6089C6.47978 0.990579 6.23371 1.05998 5.93085 1.05998Z" fill="white"/>
<path d="M15.6724 4.17765V2.71387H21.0544C21.4204 2.71387 21.4204 3.04196 21.2941 3.22493L18.2909 7.93807H21.2941V9.40187H15.9375C15.5715 9.40187 15.5715 9.07373 15.6977 8.89078L18.7136 4.17765H15.6724Z" fill="white"/>
<path d="M23.8685 9.39496H22.1712V2.70698H23.8685V9.39496ZM21.9883 1.14856C21.9883 0.593325 22.4362 0.120117 23.0167 0.120117C23.5972 0.120117 24.0452 0.580706 24.0452 1.14856C24.0452 1.7164 23.5719 2.17699 23.0167 2.17699C22.4615 2.17699 21.9883 1.7164 21.9883 1.14856Z" fill="white"/>
<path d="M27.9635 7.7604C28.8972 7.7604 29.6607 6.99695 29.6607 6.05054C29.6607 5.10413 28.8972 4.36593 27.9635 4.36593C27.0297 4.36593 26.2662 5.11675 26.2662 6.05054C26.2662 6.98434 27.017 7.7604 27.9635 7.7604ZM29.5661 3.09773V0.290039H31.2633V5.98114C31.2633 8.03803 29.9194 9.50808 27.9761 9.50808C26.0328 9.50808 24.6699 8.04435 24.6699 6.10733C24.6699 4.17033 26.0391 2.63083 27.9761 2.63083C29.9131 2.63083 29.1181 2.83904 29.5661 3.10404V3.09773Z" fill="white"/>
<path d="M39.3203 9.39555H34.9668V7.65414H38.7461C39.1311 7.65414 39.2572 7.5595 39.2572 7.1557V6.3544C39.2572 4.90324 38.8597 4.45527 37.4022 4.45527H36.1909V2.71387H37.4022C40.0712 2.71387 40.9545 3.69814 40.9545 6.36071V7.75509C40.9545 8.72672 40.2856 9.40187 39.3203 9.40187V9.39555Z" fill="white"/>
<path d="M43.825 3.69134C44.3487 3.69134 44.7967 3.26861 44.7967 2.71969C44.7967 2.17078 44.3487 1.74805 43.825 1.74805C43.3013 1.74805 42.8534 2.19602 42.8534 2.71969C42.8534 3.24338 43.2761 3.69134 43.825 3.69134ZM44.6894 4.22134V8.17105C44.6894 10.108 43.2319 11.7422 41.2949 11.7422V9.95029C42.2666 9.95029 42.9922 9.13634 42.9922 8.17105V4.22134H44.6894Z" fill="white"/>
</g>
<defs>
<clipPath id="clip0_1390_5426">
<rect width="44.7969" height="12" fill="white"/>
</clipPath>
</defs>
</svg>
