<svg width="59" height="59" viewBox="0 0 59 59" fill="none" xmlns="http://www.w3.org/2000/svg">
<path d="M47.9374 39.7515H30.0899C29.237 39.6804 28.3785 39.7861 27.5683 40.062C26.7581 40.338 26.0136 40.7782 25.3814 41.355C24.7491 41.9319 24.2427 42.6331 23.8939 43.4147C23.545 44.1963 23.3613 45.0414 23.3541 45.8973C23.3501 46.7565 23.5263 47.607 23.8714 48.3939C24.2165 49.1808 24.7227 49.8866 25.3575 50.4657C25.9922 51.0449 26.7413 51.4845 27.5564 51.7562C28.3716 52.0279 29.2346 52.1256 30.0899 52.0431H47.9374V39.7515Z" fill="#2EE378"/>
<path d="M47.9373 52.0431C51.3316 52.0431 54.0832 49.2915 54.0832 45.8973C54.0832 42.503 51.3316 39.7515 47.9373 39.7515C44.5431 39.7515 41.7915 42.503 41.7915 45.8973C41.7915 49.2915 44.5431 52.0431 47.9373 52.0431Z" fill="#0A381C"/>
<path d="M29.4999 23.3542H11.6524C10.7995 23.2832 9.94104 23.3889 9.13084 23.6648C8.32064 23.9408 7.57611 24.3809 6.94385 24.9578C6.31158 25.5347 5.80519 26.2359 5.45636 27.0175C5.10752 27.799 4.92376 28.6442 4.91657 29.5001C4.9126 30.3593 5.08884 31.2098 5.43392 31.9967C5.77899 32.7836 6.28523 33.4894 6.91996 34.0685C7.55469 34.6476 8.3038 35.0873 9.11895 35.359C9.93409 35.6306 10.7971 35.7284 11.6524 35.6459H29.4999V23.3542Z" fill="#2EE378"/>
<path d="M29.4998 35.6459C32.8941 35.6459 35.6457 32.8943 35.6457 29.5001C35.6457 26.1058 32.8941 23.3542 29.4998 23.3542C26.1056 23.3542 23.354 26.1058 23.354 29.5001C23.354 32.8943 26.1056 35.6459 29.4998 35.6459Z" fill="#0A381C"/>
<path d="M47.9374 6.95717H30.0899C29.2377 6.88979 28.3808 6.99811 27.5722 7.2754C26.7636 7.5527 26.0206 7.99306 25.3891 8.56923C24.7576 9.14539 24.2512 9.84508 23.9011 10.6249C23.5511 11.4048 23.3649 12.2482 23.3541 13.103C23.3501 13.9622 23.5263 14.8127 23.8714 15.5996C24.2165 16.3865 24.7227 17.0923 25.3575 17.6714C25.9922 18.2506 26.7413 18.6902 27.5564 18.9619C28.3716 19.2336 29.2346 19.3313 30.0899 19.2488H47.9374V6.95717Z" fill="#2EE378"/>
<path d="M47.9373 19.2489C51.3316 19.2489 54.0832 16.4974 54.0832 13.1031C54.0832 9.70886 51.3316 6.95728 47.9373 6.95728C44.5431 6.95728 41.7915 9.70886 41.7915 13.1031C41.7915 16.4974 44.5431 19.2489 47.9373 19.2489Z" fill="#0A381C"/>
</svg>
