<svg width="48" height="20" viewBox="0 0 48 20" fill="none" xmlns="http://www.w3.org/2000/svg">
<g clip-path="url(#clip0_1390_5436)">
<path d="M47.0033 14.2056L45.86 4.56258C45.5525 1.96633 43.3714 0.0078125 40.7867 0.0078125H29.8677C27.2829 0.0078125 25.1018 1.96633 24.7943 4.56258L23.6522 14.2056C23.4785 15.6723 23.9341 17.1475 24.9036 18.2523C25.8719 19.3579 27.2653 19.9911 28.7256 19.9911H41.9299C43.389 19.9911 44.7825 19.3579 45.752 18.2523C46.7202 17.1477 47.1771 15.6726 47.0033 14.2056ZM43.8716 16.5765C43.3527 17.168 42.6367 17.4934 41.8562 17.4934H28.7996C28.018 17.4934 27.3017 17.168 26.7843 16.5765C26.2653 15.985 26.0319 15.2273 26.1244 14.4422L27.2536 4.90727C27.4158 3.53907 28.5659 2.50558 29.9289 2.50558H40.7259C42.0885 2.50558 43.2389 3.53876 43.401 4.90727L44.5314 14.4422C44.624 15.2273 44.389 15.985 43.8716 16.5765Z" fill="#004D5A"/>
<path d="M41.888 11.2455C41.7082 10.9667 41.4321 10.7753 41.1102 10.7068C40.7878 10.6383 40.4593 10.7008 40.1837 10.8823C36.8961 13.0517 33.6967 13.0514 30.4028 10.882C30.1272 10.7005 29.7979 10.638 29.4764 10.7072C29.1545 10.776 28.8786 10.9675 28.6992 11.2463C28.5197 11.5252 28.4582 11.8581 28.5263 12.1838C28.5943 12.5095 28.7837 12.7886 29.0592 12.9702C31.1176 14.326 33.216 15.0133 35.2961 15.0133C37.3766 15.0133 39.4734 14.3257 41.5288 12.9696C41.8044 12.7877 41.9933 12.5083 42.0611 12.1826C42.1292 11.8572 42.0678 11.5243 41.888 11.2455Z" fill="#004D5A"/>
<path d="M19.4906 6.04046L18.3226 6.44769C18.4501 6.86489 18.6071 7.46064 18.6071 7.80805C18.6071 8.18539 18.3715 8.41374 17.92 8.41374C17.4589 8.41374 17.1841 8.30438 17.1841 7.6887V6.62623H15.9475V7.6887C15.9475 8.30438 15.6727 8.41374 15.1819 8.41374C14.7008 8.41374 14.4262 8.30438 14.4262 7.6887V6.62623H13.1797V7.67877C13.1797 8.30438 12.8459 8.41345 12.1296 8.41345C11.3936 8.41345 11.1384 8.26453 11.1384 7.45007V2.89258H9.833V7.52013C9.833 8.27481 9.57773 8.41374 8.84205 8.41374C8.26286 8.41374 7.91945 8.29503 7.91945 7.55006V4.1336H6.69231V4.83931C4.36614 5.32508 3.53223 6.30842 3.53223 7.54006C3.53223 8.71136 4.29746 9.46661 5.41621 9.46661C6.25102 9.46661 6.6723 9.03942 6.85921 8.4633C7.02611 9.48618 7.61404 10.0814 8.76141 10.082L8.7632 10.0823C9.6368 10.0823 10.1273 9.68496 10.3334 9.07928C10.5887 9.75446 11.1676 10.0823 12.0508 10.0823C12.8652 10.0823 13.3953 9.78438 13.6012 9.1687C13.8072 9.79438 14.2981 10.0823 14.995 10.0823C15.6919 10.0823 16.1729 9.78438 16.369 9.15877C16.575 9.78438 17.0758 10.0823 17.8804 10.0823C19.0974 10.0823 19.8432 9.27777 19.8432 7.81798C19.8438 7.28179 19.6966 6.54678 19.4906 6.04046ZM6.69261 7.50985C6.49674 7.66877 6.12324 7.78841 5.57356 7.78841C5.07286 7.78841 4.57275 7.64977 4.57275 7.31172C4.57275 6.94374 5.09257 6.57669 6.69231 6.30842L6.69261 7.50985Z" fill="#004D5A"/>
<path d="M7.35479 3.82553C7.75306 3.82553 8.0809 3.53309 8.0809 3.12223C8.0809 2.68781 7.73727 2.41895 7.35479 2.41895C6.9565 2.41895 6.62061 2.69536 6.62061 3.12223C6.62061 3.55696 6.97979 3.82553 7.35479 3.82553Z" fill="#004D5A"/>
<path d="M5.71344 3.82553C6.11173 3.82553 6.43956 3.53309 6.43956 3.12223C6.43956 2.68781 6.09591 2.41895 5.71344 2.41895C5.31515 2.41895 4.97925 2.69536 4.97925 3.12223C4.97925 3.55696 5.33843 3.82553 5.71344 3.82553Z" fill="#004D5A"/>
<path d="M0.015625 17.1921L0.208801 16.1302C0.586494 16.4021 1.25828 16.6483 1.82049 16.6483C2.30747 16.6483 2.5929 16.487 2.5929 16.2152C2.5929 15.4762 0.0577232 16.164 0.0577232 14.372C0.0577232 13.4376 0.821769 12.8262 2.05576 12.8262C2.71889 12.8262 3.33186 13.0132 3.76837 13.2424L3.55848 14.2787C3.14704 14.0578 2.62664 13.8539 2.12294 13.8539C1.66135 13.8539 1.37592 14.0321 1.37592 14.2871C1.37592 15.0602 3.91108 14.3977 3.91108 16.0707C3.91108 16.9882 3.04643 17.6334 1.77033 17.6334C1.00629 17.6337 0.393317 17.4045 0.015625 17.1921Z" fill="#004D5A"/>
<path d="M8.15816 12.9788H9.48438V17.5059H8.15816V16.7586C7.79718 17.3021 7.28513 17.6165 6.62199 17.6165C5.49698 17.6165 4.41406 16.8097 4.41406 15.2382C4.41406 13.6666 5.44652 12.8428 6.62199 12.8428C7.27678 12.8428 7.78882 13.089 8.15816 13.5817V12.9788ZM8.15816 15.2212C7.91482 14.3802 7.42784 13.9557 6.87369 13.9557C6.27774 13.9557 5.81585 14.4058 5.81585 15.2212C5.81585 16.0281 6.2858 16.5039 6.88205 16.5039C7.46155 16.5036 7.93989 15.9855 8.15816 15.2212Z" fill="#004D5A"/>
<path d="M10.4585 17.5065V11.5352H11.7847V17.5065H10.4585Z" fill="#004D5A"/>
<path d="M12.7585 17.5065V11.5352H14.0848V17.5065H12.7585Z" fill="#004D5A"/>
<path d="M18.5841 12.9788H19.9104V17.5059H18.5841V16.7586C18.2232 17.3021 17.7111 17.6165 17.048 17.6165C15.923 17.6165 14.8401 16.8097 14.8401 15.2382C14.8401 13.6666 15.8725 12.8428 17.048 12.8428C17.7028 12.8428 18.2149 13.089 18.5841 13.5817V12.9788ZM18.5841 15.2212C18.3408 14.3802 17.8539 13.9557 17.2997 13.9557C16.7038 13.9557 16.2418 14.4058 16.2418 15.2212C16.2418 16.0281 16.7119 16.5039 17.3081 16.5039C17.8873 16.5036 18.3659 15.9855 18.5841 15.2212Z" fill="#004D5A"/>
</g>
<defs>
<clipPath id="clip0_1390_5436">
<rect width="47.1406" height="20" fill="white"/>
</clipPath>
</defs>
</svg>
