<svg width="13" height="15" viewBox="0 0 13 15" fill="none" xmlns="http://www.w3.org/2000/svg">
<g clip-path="url(#clip0_1390_5869)">
<path d="M8.0908 13.2883C7.85882 13.8194 7.70548 14.3956 7.64673 15L12.5559 13.9226C12.7879 13.3917 12.9411 12.8153 13 12.2109L8.0908 13.2883Z" fill="white"/>
<path d="M12.5557 10.6949C12.7877 10.164 12.941 9.58759 12.9998 8.98324L9.17564 9.82291V8.20876L12.5556 7.46723C12.7875 6.9363 12.9409 6.35989 12.9996 5.75554L9.17553 6.59449V0.789524C8.58956 1.12919 8.06916 1.58132 7.64613 2.11463V6.93021L6.11674 7.26582V0C5.53078 0.339544 5.01038 0.791792 4.58735 1.32511V7.6013L1.16533 8.35203C0.933349 8.88295 0.77989 9.45936 0.721027 10.0637L4.58735 9.21545V11.2482L0.443829 12.1572C0.211847 12.6881 0.058503 13.2646 -0.000244141 13.8689L4.33687 12.9174C4.68993 12.8416 4.99338 12.6261 5.19067 12.3295L5.98607 11.1121V11.1118C6.06863 10.9859 6.11674 10.834 6.11674 10.6705V8.87985L7.64613 8.54424V11.7725L12.5556 10.6947L12.5557 10.6949Z" fill="white"/>
</g>
<defs>
<clipPath id="clip0_1390_5869">
<rect width="13" height="15" fill="white"/>
</clipPath>
</defs>
</svg>
